<svg width="40" height="40" viewBox="0 0 40 40" fill="none" xmlns="http://www.w3.org/2000/svg">
<g opacity="0.2">
<circle cx="20" cy="20" r="20" fill="#57B15B"/>
<circle cx="20" cy="20" r="20" fill="black" fill-opacity="0.2"/>
</g>
<path d="M26.3585 12.6926H24.4494V11.7311C24.4494 11.4761 24.3489 11.2315 24.1699 11.0512C23.9908 10.8708 23.7481 10.7695 23.4949 10.7695C23.2417 10.7695 22.9989 10.8708 22.8199 11.0512C22.6409 11.2315 22.5403 11.4761 22.5403 11.7311V12.6926H16.8131V11.7311C16.8131 11.4761 16.7125 11.2315 16.5335 11.0512C16.3545 10.8708 16.1117 10.7695 15.8585 10.7695C15.6054 10.7695 15.3626 10.8708 15.1836 11.0512C15.0046 11.2315 14.904 11.4761 14.904 11.7311V12.6926H12.9949C12.2354 12.6926 11.5071 12.9965 10.97 13.5375C10.433 14.0785 10.1313 14.8122 10.1313 15.5772V27.1157C10.1313 27.8807 10.433 28.6144 10.97 29.1554C11.5071 29.6964 12.2354 30.0003 12.9949 30.0003H26.3585C27.118 30.0003 27.8464 29.6964 28.3834 29.1554C28.9204 28.6144 29.2222 27.8807 29.2222 27.1157V15.5772C29.2222 14.8122 28.9204 14.0785 28.3834 13.5375C27.8464 12.9965 27.118 12.6926 26.3585 12.6926ZM27.3131 27.1157C27.3131 27.3707 27.2125 27.6153 27.0335 27.7956C26.8545 27.9759 26.6117 28.0772 26.3585 28.0772H12.9949C12.7418 28.0772 12.499 27.9759 12.32 27.7956C12.1409 27.6153 12.0404 27.3707 12.0404 27.1157V20.3849H27.3131V27.1157ZM27.3131 18.4618H12.0404V15.5772C12.0404 15.3222 12.1409 15.0776 12.32 14.8973C12.499 14.717 12.7418 14.6157 12.9949 14.6157H14.904V15.5772C14.904 15.8322 15.0046 16.0768 15.1836 16.2571C15.3626 16.4375 15.6054 16.5388 15.8585 16.5388C16.1117 16.5388 16.3545 16.4375 16.5335 16.2571C16.7125 16.0768 16.8131 15.8322 16.8131 15.5772V14.6157H22.5403V15.5772C22.5403 15.8322 22.6409 16.0768 22.8199 16.2571C22.9989 16.4375 23.2417 16.5388 23.4949 16.5388C23.7481 16.5388 23.9908 16.4375 24.1699 16.2571C24.3489 16.0768 24.4494 15.8322 24.4494 15.5772V14.6157H26.3585C26.6117 14.6157 26.8545 14.717 27.0335 14.8973C27.2125 15.0776 27.3131 15.3222 27.3131 15.5772V18.4618Z" fill="#57B15B"/>
<path d="M26.3585 12.6926H24.4494V11.7311C24.4494 11.4761 24.3489 11.2315 24.1699 11.0512C23.9908 10.8708 23.7481 10.7695 23.4949 10.7695C23.2417 10.7695 22.9989 10.8708 22.8199 11.0512C22.6409 11.2315 22.5403 11.4761 22.5403 11.7311V12.6926H16.8131V11.7311C16.8131 11.4761 16.7125 11.2315 16.5335 11.0512C16.3545 10.8708 16.1117 10.7695 15.8585 10.7695C15.6054 10.7695 15.3626 10.8708 15.1836 11.0512C15.0046 11.2315 14.904 11.4761 14.904 11.7311V12.6926H12.9949C12.2354 12.6926 11.5071 12.9965 10.97 13.5375C10.433 14.0785 10.1313 14.8122 10.1313 15.5772V27.1157C10.1313 27.8807 10.433 28.6144 10.97 29.1554C11.5071 29.6964 12.2354 30.0003 12.9949 30.0003H26.3585C27.118 30.0003 27.8464 29.6964 28.3834 29.1554C28.9204 28.6144 29.2222 27.8807 29.2222 27.1157V15.5772C29.2222 14.8122 28.9204 14.0785 28.3834 13.5375C27.8464 12.9965 27.118 12.6926 26.3585 12.6926ZM27.3131 27.1157C27.3131 27.3707 27.2125 27.6153 27.0335 27.7956C26.8545 27.9759 26.6117 28.0772 26.3585 28.0772H12.9949C12.7418 28.0772 12.499 27.9759 12.32 27.7956C12.1409 27.6153 12.0404 27.3707 12.0404 27.1157V20.3849H27.3131V27.1157ZM27.3131 18.4618H12.0404V15.5772C12.0404 15.3222 12.1409 15.0776 12.32 14.8973C12.499 14.717 12.7418 14.6157 12.9949 14.6157H14.904V15.5772C14.904 15.8322 15.0046 16.0768 15.1836 16.2571C15.3626 16.4375 15.6054 16.5388 15.8585 16.5388C16.1117 16.5388 16.3545 16.4375 16.5335 16.2571C16.7125 16.0768 16.8131 15.8322 16.8131 15.5772V14.6157H22.5403V15.5772C22.5403 15.8322 22.6409 16.0768 22.8199 16.2571C22.9989 16.4375 23.2417 16.5388 23.4949 16.5388C23.7481 16.5388 23.9908 16.4375 24.1699 16.2571C24.3489 16.0768 24.4494 15.8322 24.4494 15.5772V14.6157H26.3585C26.6117 14.6157 26.8545 14.717 27.0335 14.8973C27.2125 15.0776 27.3131 15.3222 27.3131 15.5772V18.4618Z" fill="black" fill-opacity="0.2"/>
</svg>
