<svg width="30" height="25" viewBox="0 0 30 25" fill="none" xmlns="http://www.w3.org/2000/svg">
<path d="M8.06664 19.2318C5.57151 17.5124 3.59705 15.2759 2.48134 13.8637C2.16936 13.4738 2 12.9943 2 12.5007C2 12.007 2.16936 11.5275 2.48134 11.1376C4.50044 8.57956 9.34463 3.3125 15.0003 3.3125C17.5373 3.3125 19.9094 4.37169 21.9379 5.77213" stroke="#1C4726" stroke-width="2.5" stroke-linecap="round" stroke-linejoin="round"/>
<path d="M12.2959 21.299C13.1738 21.5526 14.0846 21.6835 15.0006 21.6875C20.6562 21.6875 25.5004 16.4204 27.5195 13.8624C27.8314 13.4722 28.0006 12.9923 28.0004 12.4985C28.0001 12.0046 27.8305 11.5249 27.5182 11.135C26.8086 10.2366 26.0473 9.37772 25.2381 8.5625M17.8812 9.72669C17.5056 9.35613 17.0582 9.0614 16.5647 8.8595C16.0711 8.6576 15.5413 8.55254 15.0058 8.55036C14.4702 8.54818 13.9395 8.64894 13.4442 8.84681C12.949 9.04469 12.499 9.33577 12.1203 9.70326C11.7415 10.0708 11.4415 10.5074 11.2375 10.988C11.0335 11.4686 10.9296 11.9836 10.9317 12.5034C10.9338 13.0232 11.0419 13.5374 11.2498 14.0164C11.4577 14.4954 11.7613 14.9297 12.1431 15.2943L17.8812 9.72669ZM4.18164 23L25.8196 2L4.18164 23Z" stroke="#1C4726" stroke-width="2.5" stroke-linecap="round" stroke-linejoin="round"/>
</svg>
