<svg width="50" height="50" viewBox="0 0 50 50" fill="none" xmlns="http://www.w3.org/2000/svg">
<g opacity="0.2">
<circle cx="25" cy="25" r="25" fill="#57B15B"/>
<circle cx="25" cy="25" r="25" fill="black" fill-opacity="0.2"/>
</g>
<path d="M13 19.9135V28.987C13 31.4872 13.8829 33.6145 15.6487 35.3687C17.4145 37.1229 19.5558 38 22.0726 38H24.6909C26.9641 38 28.943 37.264 30.6276 35.7921C32.3123 34.3202 33.3169 32.4752 33.6417 30.2573H33.7635C35.1842 30.2573 36.4122 29.7532 37.4473 28.745C38.4824 27.7369 39 26.5271 39 25.1156C39 23.7042 38.4824 22.4843 37.4473 21.456C36.4122 20.4277 35.1842 19.9135 33.7635 19.9135C33.7635 19.2279 33.5098 18.6331 33.0023 18.129C32.4949 17.625 31.8962 17.3729 31.2061 17.3729H15.6183C14.8876 17.3729 14.2685 17.625 13.7611 18.129C13.2537 18.6331 13 19.2279 13 19.9135ZM33.7635 22.5146C34.4941 22.5146 35.1132 22.7666 35.6206 23.2707C36.128 23.7748 36.3817 24.3897 36.3817 25.1156C36.3817 25.8012 36.128 26.396 35.6206 26.9001C35.1132 27.4042 34.4941 27.6562 33.7635 27.6562V22.5146ZM31.2061 28.987C31.2061 30.7614 30.5769 32.2736 29.3185 33.5237C28.0601 34.7739 26.5176 35.3989 24.6909 35.3989H22.0726C20.2865 35.3989 18.7642 34.7739 17.5059 33.5237C16.2475 32.2736 15.6183 30.7614 15.6183 28.987V19.9135H31.2061V28.987ZM21.829 9.08578C22.235 8.31958 22.1132 7.71468 21.4637 7.27108C20.7736 6.82749 20.2053 6.92831 19.7588 7.57353L19.089 8.42039C18.3583 9.58987 18.064 10.8501 18.2061 12.201C18.3482 13.552 18.9063 14.7114 19.8806 15.6792C20.1241 15.9212 20.4286 16.0421 20.7939 16.0421C21.1593 16.0421 21.4637 15.9212 21.7073 15.6792C22.235 15.0743 22.235 14.4694 21.7073 13.8645C21.1795 13.3402 20.8751 12.7051 20.7939 11.9591C20.7127 11.213 20.8954 10.5174 21.3419 9.87215L21.829 9.08578ZM26.3958 12.2918L26.8829 11.8078C27.4512 11.2433 27.4918 10.6384 27.0047 9.99313C26.8423 9.75117 26.5683 9.62011 26.1827 9.59995C25.797 9.57979 25.4824 9.67052 25.2389 9.87215L24.6909 10.3561C23.7978 11.1223 23.4122 12.0296 23.534 13.0781C23.6557 14.2073 24.3052 15.1146 25.4824 15.8002C25.5636 15.9615 25.726 16.0421 25.9696 16.0421C26.4567 16.0421 26.8626 15.8405 27.1874 15.4372C27.6339 14.671 27.4512 14.0661 26.6393 13.6225C26.1928 13.3402 25.9696 13.1185 25.9696 12.9571L26.3958 12.2918Z" fill="#57B15B"/>
<path d="M13 19.9135V28.987C13 31.4872 13.8829 33.6145 15.6487 35.3687C17.4145 37.1229 19.5558 38 22.0726 38H24.6909C26.9641 38 28.943 37.264 30.6276 35.7921C32.3123 34.3202 33.3169 32.4752 33.6417 30.2573H33.7635C35.1842 30.2573 36.4122 29.7532 37.4473 28.745C38.4824 27.7369 39 26.5271 39 25.1156C39 23.7042 38.4824 22.4843 37.4473 21.456C36.4122 20.4277 35.1842 19.9135 33.7635 19.9135C33.7635 19.2279 33.5098 18.6331 33.0023 18.129C32.4949 17.625 31.8962 17.3729 31.2061 17.3729H15.6183C14.8876 17.3729 14.2685 17.625 13.7611 18.129C13.2537 18.6331 13 19.2279 13 19.9135ZM33.7635 22.5146C34.4941 22.5146 35.1132 22.7666 35.6206 23.2707C36.128 23.7748 36.3817 24.3897 36.3817 25.1156C36.3817 25.8012 36.128 26.396 35.6206 26.9001C35.1132 27.4042 34.4941 27.6562 33.7635 27.6562V22.5146ZM31.2061 28.987C31.2061 30.7614 30.5769 32.2736 29.3185 33.5237C28.0601 34.7739 26.5176 35.3989 24.6909 35.3989H22.0726C20.2865 35.3989 18.7642 34.7739 17.5059 33.5237C16.2475 32.2736 15.6183 30.7614 15.6183 28.987V19.9135H31.2061V28.987ZM21.829 9.08578C22.235 8.31958 22.1132 7.71468 21.4637 7.27108C20.7736 6.82749 20.2053 6.92831 19.7588 7.57353L19.089 8.42039C18.3583 9.58987 18.064 10.8501 18.2061 12.201C18.3482 13.552 18.9063 14.7114 19.8806 15.6792C20.1241 15.9212 20.4286 16.0421 20.7939 16.0421C21.1593 16.0421 21.4637 15.9212 21.7073 15.6792C22.235 15.0743 22.235 14.4694 21.7073 13.8645C21.1795 13.3402 20.8751 12.7051 20.7939 11.9591C20.7127 11.213 20.8954 10.5174 21.3419 9.87215L21.829 9.08578ZM26.3958 12.2918L26.8829 11.8078C27.4512 11.2433 27.4918 10.6384 27.0047 9.99313C26.8423 9.75117 26.5683 9.62011 26.1827 9.59995C25.797 9.57979 25.4824 9.67052 25.2389 9.87215L24.6909 10.3561C23.7978 11.1223 23.4122 12.0296 23.534 13.0781C23.6557 14.2073 24.3052 15.1146 25.4824 15.8002C25.5636 15.9615 25.726 16.0421 25.9696 16.0421C26.4567 16.0421 26.8626 15.8405 27.1874 15.4372C27.6339 14.671 27.4512 14.0661 26.6393 13.6225C26.1928 13.3402 25.9696 13.1185 25.9696 12.9571L26.3958 12.2918Z" fill="black" fill-opacity="0.2"/>
</svg>
