<svg width="50" height="50" viewBox="0 0 50 50" fill="none" xmlns="http://www.w3.org/2000/svg">
<g opacity="0.2">
<circle cx="25" cy="25" r="25" fill="#57B15B"/>
<circle cx="25" cy="25" r="25" fill="black" fill-opacity="0.2"/>
</g>
<path d="M40.825 18.7267C40.4558 18.7145 40.0893 18.7952 39.758 18.9618C39.4268 19.1284 39.141 19.3756 38.926 19.6815C38.9077 19.7082 38.8816 19.7282 38.8515 19.7387C38.8213 19.7492 38.7886 19.7496 38.7582 19.7399C38.7277 19.7302 38.7011 19.7108 38.6822 19.6847C38.6633 19.6585 38.6531 19.6269 38.653 19.5945V16.7949C38.653 15.2099 37.4275 13.8762 35.872 13.8388C35.4918 13.829 35.1135 13.8969 34.7594 14.0383C34.4053 14.1797 34.0826 14.3919 33.8103 14.6624C33.538 14.9328 33.3216 15.256 33.1738 15.6129C33.0261 15.9699 32.95 16.3533 32.95 16.7407L32.9469 22.8379C32.9469 22.8784 32.9311 22.9173 32.9029 22.9459C32.8748 22.9746 32.8367 22.9907 32.7969 22.9907H17.2C17.1602 22.9907 17.1221 22.9746 17.0939 22.9459C17.0658 22.9173 17.05 22.8784 17.05 22.8379V16.7949C17.05 15.2099 15.8245 13.8762 14.269 13.8388C13.889 13.8294 13.5111 13.8976 13.1573 14.0392C12.8036 14.1808 12.4812 14.3931 12.2093 14.6635C11.9373 14.9339 11.7211 15.2569 11.5736 15.6137C11.426 15.9704 11.35 16.3536 11.35 16.7407V19.596C11.3499 19.6285 11.3397 19.6601 11.3208 19.6862C11.3019 19.7124 11.2753 19.7317 11.2448 19.7414C11.2144 19.7511 11.1817 19.7507 11.1515 19.7402C11.1214 19.7297 11.0953 19.7097 11.077 19.6831C10.8619 19.3764 10.5757 19.1286 10.2439 18.9617C9.91203 18.7949 9.54486 18.7142 9.175 18.7267C7.9525 18.7657 7 19.8198 7 21.0656V28.6064C7 29.8522 7.9555 30.9064 9.175 30.9453C9.54423 30.9575 9.91071 30.8768 10.242 30.7102C10.5732 30.5437 10.859 30.2965 11.074 29.9905C11.0918 29.9623 11.1182 29.9409 11.1491 29.9295C11.1801 29.9182 11.2138 29.9174 11.2452 29.9275C11.2766 29.9376 11.3038 29.9579 11.3228 29.9853C11.3417 30.0127 11.3513 30.0456 11.35 30.0791V32.8802C11.35 34.4621 12.5755 35.7989 14.131 35.837C14.511 35.8464 14.8891 35.7783 15.2429 35.6366C15.5966 35.4949 15.919 35.2826 16.191 35.0121C16.463 34.7417 16.6791 34.4185 16.8267 34.0617C16.9742 33.7048 17.0501 33.3216 17.05 32.9344V26.6708C17.05 26.6303 17.0658 26.5914 17.0939 26.5628C17.1221 26.5341 17.1602 26.518 17.2 26.518H32.8C32.8398 26.518 32.8779 26.5341 32.9061 26.5628C32.9342 26.5914 32.95 26.6303 32.95 26.6708V32.8802C32.95 34.4652 34.1755 35.7989 35.731 35.8363C36.111 35.8457 36.4889 35.7775 36.8427 35.6359C37.1964 35.4943 37.5188 35.282 37.7907 35.0116C38.0627 34.7412 38.2789 34.4182 38.4264 34.0614C38.574 33.7047 38.65 33.3215 38.65 32.9344V30.0791C38.6501 30.0466 38.6603 30.015 38.6792 29.9889C38.6981 29.9627 38.7247 29.9434 38.7552 29.9337C38.7856 29.924 38.8183 29.9244 38.8485 29.9349C38.8786 29.9454 38.9048 29.9654 38.923 29.992C39.1381 30.2987 39.4243 30.5465 39.7561 30.7134C40.088 30.8802 40.4551 30.9609 40.825 30.9484C42.0475 30.9094 43 29.8553 43 28.6095V21.0672C43 19.8213 42.0445 18.7672 40.825 18.7267Z" fill="#57B15B"/>
<path d="M40.825 18.7267C40.4558 18.7145 40.0893 18.7952 39.758 18.9618C39.4268 19.1284 39.141 19.3756 38.926 19.6815C38.9077 19.7082 38.8816 19.7282 38.8515 19.7387C38.8213 19.7492 38.7886 19.7496 38.7582 19.7399C38.7277 19.7302 38.7011 19.7108 38.6822 19.6847C38.6633 19.6585 38.6531 19.6269 38.653 19.5945V16.7949C38.653 15.2099 37.4275 13.8762 35.872 13.8388C35.4918 13.829 35.1135 13.8969 34.7594 14.0383C34.4053 14.1797 34.0826 14.3919 33.8103 14.6624C33.538 14.9328 33.3216 15.256 33.1738 15.6129C33.0261 15.9699 32.95 16.3533 32.95 16.7407L32.9469 22.8379C32.9469 22.8784 32.9311 22.9173 32.9029 22.9459C32.8748 22.9746 32.8367 22.9907 32.7969 22.9907H17.2C17.1602 22.9907 17.1221 22.9746 17.0939 22.9459C17.0658 22.9173 17.05 22.8784 17.05 22.8379V16.7949C17.05 15.2099 15.8245 13.8762 14.269 13.8388C13.889 13.8294 13.5111 13.8976 13.1573 14.0392C12.8036 14.1808 12.4812 14.3931 12.2093 14.6635C11.9373 14.9339 11.7211 15.2569 11.5736 15.6137C11.426 15.9704 11.35 16.3536 11.35 16.7407V19.596C11.3499 19.6285 11.3397 19.6601 11.3208 19.6862C11.3019 19.7124 11.2753 19.7317 11.2448 19.7414C11.2144 19.7511 11.1817 19.7507 11.1515 19.7402C11.1214 19.7297 11.0953 19.7097 11.077 19.6831C10.8619 19.3764 10.5757 19.1286 10.2439 18.9617C9.91203 18.7949 9.54486 18.7142 9.175 18.7267C7.9525 18.7657 7 19.8198 7 21.0656V28.6064C7 29.8522 7.9555 30.9064 9.175 30.9453C9.54423 30.9575 9.91071 30.8768 10.242 30.7102C10.5732 30.5437 10.859 30.2965 11.074 29.9905C11.0918 29.9623 11.1182 29.9409 11.1491 29.9295C11.1801 29.9182 11.2138 29.9174 11.2452 29.9275C11.2766 29.9376 11.3038 29.9579 11.3228 29.9853C11.3417 30.0127 11.3513 30.0456 11.35 30.0791V32.8802C11.35 34.4621 12.5755 35.7989 14.131 35.837C14.511 35.8464 14.8891 35.7783 15.2429 35.6366C15.5966 35.4949 15.919 35.2826 16.191 35.0121C16.463 34.7417 16.6791 34.4185 16.8267 34.0617C16.9742 33.7048 17.0501 33.3216 17.05 32.9344V26.6708C17.05 26.6303 17.0658 26.5914 17.0939 26.5628C17.1221 26.5341 17.1602 26.518 17.2 26.518H32.8C32.8398 26.518 32.8779 26.5341 32.9061 26.5628C32.9342 26.5914 32.95 26.6303 32.95 26.6708V32.8802C32.95 34.4652 34.1755 35.7989 35.731 35.8363C36.111 35.8457 36.4889 35.7775 36.8427 35.6359C37.1964 35.4943 37.5188 35.282 37.7907 35.0116C38.0627 34.7412 38.2789 34.4182 38.4264 34.0614C38.574 33.7047 38.65 33.3215 38.65 32.9344V30.0791C38.6501 30.0466 38.6603 30.015 38.6792 29.9889C38.6981 29.9627 38.7247 29.9434 38.7552 29.9337C38.7856 29.924 38.8183 29.9244 38.8485 29.9349C38.8786 29.9454 38.9048 29.9654 38.923 29.992C39.1381 30.2987 39.4243 30.5465 39.7561 30.7134C40.088 30.8802 40.4551 30.9609 40.825 30.9484C42.0475 30.9094 43 29.8553 43 28.6095V21.0672C43 19.8213 42.0445 18.7672 40.825 18.7267Z" fill="black" fill-opacity="0.2"/>
</svg>
