<svg width="40" height="40" viewBox="0 0 40 40" fill="none" xmlns="http://www.w3.org/2000/svg">
<g opacity="0.2">
<circle cx="20" cy="20" r="20" fill="#57B15B"/>
<circle cx="20" cy="20" r="20" fill="black" fill-opacity="0.2"/>
</g>
<path d="M5.90838 25C5.90838 22.52 7.14838 20.62 9.62838 19.3C10.1384 19.03 10.5384 18.755 10.8284 18.475C11.1184 18.185 11.2634 17.835 11.2634 17.425C11.2634 17.015 11.1134 16.68 10.8134 16.42C10.5234 16.16 10.1384 16.03 9.65838 16.03C8.71838 16.03 8.06338 16.46 7.69338 17.32L6.07338 16.585C6.35338 15.895 6.81338 15.345 7.45338 14.935C8.09338 14.525 8.82338 14.32 9.64338 14.32C10.6934 14.32 11.5284 14.61 12.1484 15.19C12.7684 15.77 13.0784 16.515 13.0784 17.425C13.0784 18.245 12.8684 18.895 12.4484 19.375C12.0384 19.845 11.3984 20.32 10.5284 20.8C9.79838 21.2 9.23838 21.59 8.84838 21.97C8.45838 22.35 8.19838 22.78 8.06838 23.26H13.1684V25H5.90838ZM16.7576 24.85C16.5276 25.07 16.2426 25.18 15.9026 25.18C15.5626 25.18 15.2776 25.07 15.0476 24.85C14.8176 24.62 14.7026 24.34 14.7026 24.01C14.7026 23.68 14.8176 23.405 15.0476 23.185C15.2776 22.955 15.5626 22.84 15.9026 22.84C16.2426 22.84 16.5276 22.955 16.7576 23.185C16.9876 23.415 17.1026 23.69 17.1026 24.01C17.1026 24.34 16.9876 24.62 16.7576 24.85ZM22.0589 25.18C21.1689 25.18 20.4039 24.965 19.7639 24.535C19.1339 24.095 18.6639 23.495 18.3539 22.735L20.0039 22.075C20.4439 23.005 21.1389 23.47 22.0889 23.47C22.6189 23.47 23.0539 23.34 23.3939 23.08C23.7339 22.81 23.9039 22.43 23.9039 21.94C23.9039 21.49 23.7539 21.12 23.4539 20.83C23.1539 20.54 22.6989 20.395 22.0889 20.395H21.1739V18.685H22.0889C22.5189 18.685 22.8639 18.565 23.1239 18.325C23.3939 18.085 23.5289 17.77 23.5289 17.38C23.5289 16.97 23.3989 16.645 23.1389 16.405C22.8889 16.155 22.5289 16.03 22.0589 16.03C21.3089 16.03 20.7439 16.385 20.3639 17.095L18.7139 16.465C19.0039 15.805 19.4389 15.285 20.0189 14.905C20.5989 14.515 21.2889 14.32 22.0889 14.32C23.0389 14.32 23.8189 14.6 24.4289 15.16C25.0489 15.71 25.3589 16.395 25.3589 17.215C25.3589 18.245 24.9189 19 24.0389 19.48C24.5489 19.68 24.9589 19.99 25.2689 20.41C25.5789 20.83 25.7339 21.33 25.7339 21.91C25.7339 22.94 25.3939 23.745 24.7139 24.325C24.0439 24.895 23.1589 25.18 22.0589 25.18ZM34.5174 25H32.5974L30.4074 20.77L29.5524 21.61V25H27.7974V14.995L29.5524 14.17V19.555L31.7124 17.335H33.8424L31.6674 19.51L34.5174 25Z" fill="#57B15B"/>
<path d="M5.90838 25C5.90838 22.52 7.14838 20.62 9.62838 19.3C10.1384 19.03 10.5384 18.755 10.8284 18.475C11.1184 18.185 11.2634 17.835 11.2634 17.425C11.2634 17.015 11.1134 16.68 10.8134 16.42C10.5234 16.16 10.1384 16.03 9.65838 16.03C8.71838 16.03 8.06338 16.46 7.69338 17.32L6.07338 16.585C6.35338 15.895 6.81338 15.345 7.45338 14.935C8.09338 14.525 8.82338 14.32 9.64338 14.32C10.6934 14.32 11.5284 14.61 12.1484 15.19C12.7684 15.77 13.0784 16.515 13.0784 17.425C13.0784 18.245 12.8684 18.895 12.4484 19.375C12.0384 19.845 11.3984 20.32 10.5284 20.8C9.79838 21.2 9.23838 21.59 8.84838 21.97C8.45838 22.35 8.19838 22.78 8.06838 23.26H13.1684V25H5.90838ZM16.7576 24.85C16.5276 25.07 16.2426 25.18 15.9026 25.18C15.5626 25.18 15.2776 25.07 15.0476 24.85C14.8176 24.62 14.7026 24.34 14.7026 24.01C14.7026 23.68 14.8176 23.405 15.0476 23.185C15.2776 22.955 15.5626 22.84 15.9026 22.84C16.2426 22.84 16.5276 22.955 16.7576 23.185C16.9876 23.415 17.1026 23.69 17.1026 24.01C17.1026 24.34 16.9876 24.62 16.7576 24.85ZM22.0589 25.18C21.1689 25.18 20.4039 24.965 19.7639 24.535C19.1339 24.095 18.6639 23.495 18.3539 22.735L20.0039 22.075C20.4439 23.005 21.1389 23.47 22.0889 23.47C22.6189 23.47 23.0539 23.34 23.3939 23.08C23.7339 22.81 23.9039 22.43 23.9039 21.94C23.9039 21.49 23.7539 21.12 23.4539 20.83C23.1539 20.54 22.6989 20.395 22.0889 20.395H21.1739V18.685H22.0889C22.5189 18.685 22.8639 18.565 23.1239 18.325C23.3939 18.085 23.5289 17.77 23.5289 17.38C23.5289 16.97 23.3989 16.645 23.1389 16.405C22.8889 16.155 22.5289 16.03 22.0589 16.03C21.3089 16.03 20.7439 16.385 20.3639 17.095L18.7139 16.465C19.0039 15.805 19.4389 15.285 20.0189 14.905C20.5989 14.515 21.2889 14.32 22.0889 14.32C23.0389 14.32 23.8189 14.6 24.4289 15.16C25.0489 15.71 25.3589 16.395 25.3589 17.215C25.3589 18.245 24.9189 19 24.0389 19.48C24.5489 19.68 24.9589 19.99 25.2689 20.41C25.5789 20.83 25.7339 21.33 25.7339 21.91C25.7339 22.94 25.3939 23.745 24.7139 24.325C24.0439 24.895 23.1589 25.18 22.0589 25.18ZM34.5174 25H32.5974L30.4074 20.77L29.5524 21.61V25H27.7974V14.995L29.5524 14.17V19.555L31.7124 17.335H33.8424L31.6674 19.51L34.5174 25Z" fill="black" fill-opacity="0.2"/>
</svg>
