<svg width="40" height="40" viewBox="0 0 40 40" fill="none" xmlns="http://www.w3.org/2000/svg">
<g opacity="0.2">
<circle cx="20" cy="20" r="20" fill="#57B15B"/>
<circle cx="20" cy="20" r="20" fill="black" fill-opacity="0.2"/>
</g>
<path d="M24.5859 10.3172C24.5697 10.3089 24.554 10.2995 24.5391 10.2891C24.0224 10.0122 23.4829 9.78005 22.9266 9.59531L22.6734 9.51094C21.6483 9.17818 20.5778 9.00583 19.5 9C13.7016 9 9 13.7016 9 19.5C8.99952 21.3736 9.50101 23.2131 10.4523 24.8272C11.4036 26.4413 12.77 27.771 14.4094 28.6781C14.4281 28.6875 14.4422 28.7016 14.4609 28.7109C14.9776 28.9878 15.5171 29.2199 16.0734 29.4047L16.3266 29.4891C17.3517 29.8222 18.4222 29.9945 19.5 30C25.2984 30 30 25.2984 30 19.5C30.0006 17.6252 29.4987 15.7845 28.5465 14.1695C27.5943 12.5545 26.2267 11.2243 24.5859 10.3172ZM19.5 27.4875C19.0726 27.486 18.6461 27.4483 18.225 27.375C17.7706 27.2997 17.3237 27.1852 16.8891 27.0328C16.8 27.0047 16.7109 26.9766 16.6266 26.9437C16.3214 26.8286 16.0239 26.6939 15.7359 26.5406C14.4597 25.8591 13.3926 24.8437 12.6487 23.6028C11.9048 22.3618 11.5121 20.9421 11.5125 19.4953C11.5125 17.7516 12.0938 16.1484 13.0453 14.8359L24.1641 25.9547C22.8469 26.9062 21.2437 27.4875 19.5 27.4875ZM25.9594 24.1594L14.8406 13.0406C16.1531 12.0937 17.7516 11.5125 19.5 11.5125C19.9274 11.5142 20.3539 11.5519 20.775 11.625C21.2294 11.7003 21.6763 11.8148 22.1109 11.9672C22.1953 11.9953 22.2844 12.0234 22.3734 12.0562C22.6621 12.1655 22.9439 12.2923 23.2172 12.4359C24.5068 13.112 25.5869 14.1281 26.3405 15.3741C27.094 16.6201 27.4923 18.0485 27.4922 19.5047C27.4875 21.2484 26.9062 22.8469 25.9594 24.1594Z" fill="#57B15B"/>
<path d="M24.5859 10.3172C24.5697 10.3089 24.554 10.2995 24.5391 10.2891C24.0224 10.0122 23.4829 9.78005 22.9266 9.59531L22.6734 9.51094C21.6483 9.17818 20.5778 9.00583 19.5 9C13.7016 9 9 13.7016 9 19.5C8.99952 21.3736 9.50101 23.2131 10.4523 24.8272C11.4036 26.4413 12.77 27.771 14.4094 28.6781C14.4281 28.6875 14.4422 28.7016 14.4609 28.7109C14.9776 28.9878 15.5171 29.2199 16.0734 29.4047L16.3266 29.4891C17.3517 29.8222 18.4222 29.9945 19.5 30C25.2984 30 30 25.2984 30 19.5C30.0006 17.6252 29.4987 15.7845 28.5465 14.1695C27.5943 12.5545 26.2267 11.2243 24.5859 10.3172ZM19.5 27.4875C19.0726 27.486 18.6461 27.4483 18.225 27.375C17.7706 27.2997 17.3237 27.1852 16.8891 27.0328C16.8 27.0047 16.7109 26.9766 16.6266 26.9437C16.3214 26.8286 16.0239 26.6939 15.7359 26.5406C14.4597 25.8591 13.3926 24.8437 12.6487 23.6028C11.9048 22.3618 11.5121 20.9421 11.5125 19.4953C11.5125 17.7516 12.0938 16.1484 13.0453 14.8359L24.1641 25.9547C22.8469 26.9062 21.2437 27.4875 19.5 27.4875ZM25.9594 24.1594L14.8406 13.0406C16.1531 12.0937 17.7516 11.5125 19.5 11.5125C19.9274 11.5142 20.3539 11.5519 20.775 11.625C21.2294 11.7003 21.6763 11.8148 22.1109 11.9672C22.1953 11.9953 22.2844 12.0234 22.3734 12.0562C22.6621 12.1655 22.9439 12.2923 23.2172 12.4359C24.5068 13.112 25.5869 14.1281 26.3405 15.3741C27.094 16.6201 27.4923 18.0485 27.4922 19.5047C27.4875 21.2484 26.9062 22.8469 25.9594 24.1594Z" fill="black" fill-opacity="0.2"/>
</svg>
