<svg width="40" height="40" viewBox="0 0 40 40" fill="none" xmlns="http://www.w3.org/2000/svg">
<path d="M16.1603 25.216C15.435 25.8667 14.475 26.192 13.2803 26.192C12.0856 26.192 11.1256 25.8667 10.4003 25.216C9.68565 24.5653 9.32831 23.7173 9.32831 22.672C9.32831 21.392 9.95231 20.4587 11.2003 19.872C10.2616 19.3493 9.79231 18.576 9.79231 17.552C9.79231 16.688 10.107 15.984 10.7363 15.44C11.3763 14.8853 12.2243 14.608 13.2803 14.608C14.3363 14.608 15.1843 14.8853 15.8243 15.44C16.4643 15.984 16.7843 16.688 16.7843 17.552C16.7843 18.5653 16.315 19.3333 15.3763 19.856C15.9523 20.1333 16.4056 20.512 16.7363 20.992C17.0776 21.472 17.2483 22.032 17.2483 22.672C17.2483 23.7173 16.8856 24.5653 16.1603 25.216ZM12.1443 18.624C12.4323 18.88 12.811 19.008 13.2803 19.008C13.7496 19.008 14.1283 18.88 14.4163 18.624C14.715 18.368 14.8643 18.048 14.8643 17.664C14.8643 17.28 14.715 16.9707 14.4163 16.736C14.1283 16.4907 13.7496 16.368 13.2803 16.368C12.811 16.368 12.4323 16.4907 12.1443 16.736C11.8563 16.9707 11.7123 17.28 11.7123 17.664C11.7123 18.048 11.8563 18.368 12.1443 18.624ZM11.8403 23.92C12.2136 24.2507 12.6936 24.416 13.2803 24.416C13.867 24.416 14.3523 24.2507 14.7363 23.92C15.1203 23.5787 15.3123 23.1467 15.3123 22.624C15.3123 22.112 15.115 21.68 14.7203 21.328C14.3363 20.976 13.8563 20.8 13.2803 20.8C12.6936 20.8 12.2136 20.976 11.8403 21.328C11.467 21.6693 11.2803 22.1013 11.2803 22.624C11.2803 23.1573 11.467 23.5893 11.8403 23.92ZM21.0258 25.84C20.7805 26.0747 20.4765 26.192 20.1138 26.192C19.7511 26.192 19.4471 26.0747 19.2018 25.84C18.9565 25.5947 18.8338 25.296 18.8338 24.944C18.8338 24.592 18.9565 24.2987 19.2018 24.064C19.4471 23.8187 19.7511 23.696 20.1138 23.696C20.4765 23.696 20.7805 23.8187 21.0258 24.064C21.2711 24.3093 21.3938 24.6027 21.3938 24.944C21.3938 25.296 21.2711 25.5947 21.0258 25.84ZM26.9686 26.192C25.6886 26.192 24.7019 25.792 24.0086 24.992C23.3259 24.1813 22.9846 23.136 22.9846 21.856C22.9846 19.936 23.5072 18.336 24.5526 17.056C25.6086 15.776 27.2032 14.96 29.3366 14.608V16.432C28.3766 16.5813 27.5286 16.9173 26.7926 17.44C26.0672 17.952 25.5606 18.672 25.2726 19.6C25.8059 19.152 26.4939 18.928 27.3366 18.928C28.3819 18.928 29.2352 19.2693 29.8966 19.952C30.5686 20.624 30.9046 21.4987 30.9046 22.576C30.9046 23.6533 30.5366 24.528 29.8006 25.2C29.0752 25.8613 28.1312 26.192 26.9686 26.192ZM25.5286 23.888C25.9019 24.208 26.3819 24.368 26.9686 24.368C27.5552 24.368 28.0352 24.208 28.4086 23.888C28.7819 23.568 28.9686 23.1307 28.9686 22.576C28.9686 22.0107 28.7819 21.568 28.4086 21.248C28.0352 20.9173 27.5552 20.752 26.9686 20.752C26.3819 20.752 25.9019 20.9173 25.5286 21.248C25.1552 21.568 24.9686 22.0107 24.9686 22.576C24.9686 23.1307 25.1552 23.568 25.5286 23.888Z" fill="#57B15B"/>
<path d="M16.1603 25.216C15.435 25.8667 14.475 26.192 13.2803 26.192C12.0856 26.192 11.1256 25.8667 10.4003 25.216C9.68565 24.5653 9.32831 23.7173 9.32831 22.672C9.32831 21.392 9.95231 20.4587 11.2003 19.872C10.2616 19.3493 9.79231 18.576 9.79231 17.552C9.79231 16.688 10.107 15.984 10.7363 15.44C11.3763 14.8853 12.2243 14.608 13.2803 14.608C14.3363 14.608 15.1843 14.8853 15.8243 15.44C16.4643 15.984 16.7843 16.688 16.7843 17.552C16.7843 18.5653 16.315 19.3333 15.3763 19.856C15.9523 20.1333 16.4056 20.512 16.7363 20.992C17.0776 21.472 17.2483 22.032 17.2483 22.672C17.2483 23.7173 16.8856 24.5653 16.1603 25.216ZM12.1443 18.624C12.4323 18.88 12.811 19.008 13.2803 19.008C13.7496 19.008 14.1283 18.88 14.4163 18.624C14.715 18.368 14.8643 18.048 14.8643 17.664C14.8643 17.28 14.715 16.9707 14.4163 16.736C14.1283 16.4907 13.7496 16.368 13.2803 16.368C12.811 16.368 12.4323 16.4907 12.1443 16.736C11.8563 16.9707 11.7123 17.28 11.7123 17.664C11.7123 18.048 11.8563 18.368 12.1443 18.624ZM11.8403 23.92C12.2136 24.2507 12.6936 24.416 13.2803 24.416C13.867 24.416 14.3523 24.2507 14.7363 23.92C15.1203 23.5787 15.3123 23.1467 15.3123 22.624C15.3123 22.112 15.115 21.68 14.7203 21.328C14.3363 20.976 13.8563 20.8 13.2803 20.8C12.6936 20.8 12.2136 20.976 11.8403 21.328C11.467 21.6693 11.2803 22.1013 11.2803 22.624C11.2803 23.1573 11.467 23.5893 11.8403 23.92ZM21.0258 25.84C20.7805 26.0747 20.4765 26.192 20.1138 26.192C19.7511 26.192 19.4471 26.0747 19.2018 25.84C18.9565 25.5947 18.8338 25.296 18.8338 24.944C18.8338 24.592 18.9565 24.2987 19.2018 24.064C19.4471 23.8187 19.7511 23.696 20.1138 23.696C20.4765 23.696 20.7805 23.8187 21.0258 24.064C21.2711 24.3093 21.3938 24.6027 21.3938 24.944C21.3938 25.296 21.2711 25.5947 21.0258 25.84ZM26.9686 26.192C25.6886 26.192 24.7019 25.792 24.0086 24.992C23.3259 24.1813 22.9846 23.136 22.9846 21.856C22.9846 19.936 23.5072 18.336 24.5526 17.056C25.6086 15.776 27.2032 14.96 29.3366 14.608V16.432C28.3766 16.5813 27.5286 16.9173 26.7926 17.44C26.0672 17.952 25.5606 18.672 25.2726 19.6C25.8059 19.152 26.4939 18.928 27.3366 18.928C28.3819 18.928 29.2352 19.2693 29.8966 19.952C30.5686 20.624 30.9046 21.4987 30.9046 22.576C30.9046 23.6533 30.5366 24.528 29.8006 25.2C29.0752 25.8613 28.1312 26.192 26.9686 26.192ZM25.5286 23.888C25.9019 24.208 26.3819 24.368 26.9686 24.368C27.5552 24.368 28.0352 24.208 28.4086 23.888C28.7819 23.568 28.9686 23.1307 28.9686 22.576C28.9686 22.0107 28.7819 21.568 28.4086 21.248C28.0352 20.9173 27.5552 20.752 26.9686 20.752C26.3819 20.752 25.9019 20.9173 25.5286 21.248C25.1552 21.568 24.9686 22.0107 24.9686 22.576C24.9686 23.1307 25.1552 23.568 25.5286 23.888Z" fill="black" fill-opacity="0.2"/>
<g opacity="0.2">
<circle cx="20" cy="20" r="20" fill="#57B15B"/>
<circle cx="20" cy="20" r="20" fill="black" fill-opacity="0.2"/>
</g>
</svg>
