<svg width="28" height="21" viewBox="0 0 28 21" fill="none" xmlns="http://www.w3.org/2000/svg">
<path d="M26.5192 9.09129C27.1603 9.93271 27.1603 11.0686 26.5192 11.9087C24.5001 14.5538 19.6559 20 14.0002 20C8.34453 20 3.50029 14.5538 1.48118 11.9087C1.1693 11.5058 1 11.0102 1 10.5C1 9.98982 1.1693 9.49418 1.48118 9.09129C3.50029 6.44621 8.34453 1 14.0002 1C19.6559 1 24.5001 6.44621 26.5192 9.09129V9.09129Z" stroke="#1C4726" stroke-width="2" stroke-linecap="round" stroke-linejoin="round"/>
<path d="M14 14.5713C16.2091 14.5713 18 12.951 18 10.9523C18 8.95355 16.2091 7.33325 14 7.33325C11.7909 7.33325 10 8.95355 10 10.9523C10 12.951 11.7909 14.5713 14 14.5713Z" stroke="#1C4726" stroke-width="2" stroke-linecap="round" stroke-linejoin="round"/>
</svg>
