<svg width="18" height="22" viewBox="0 0 18 22" fill="none" xmlns="http://www.w3.org/2000/svg">
<path d="M8.81196 0.78833C6.59863 0.788219 4.47469 1.66807 2.90178 3.23667C1.32888 4.80526 0.434121 6.9358 0.411987 9.16525C0.411987 14.9614 7.81446 21.4133 8.12946 21.6883C8.31965 21.8522 8.56169 21.9422 8.81196 21.9422C9.06223 21.9422 9.30427 21.8522 9.49446 21.6883C9.86195 21.4133 17.2119 14.9614 17.2119 9.16525C17.1898 6.9358 16.295 4.80526 14.7221 3.23667C13.1492 1.66807 11.0253 0.788219 8.81196 0.78833ZM8.81196 19.4566C7.05846 17.7749 2.51198 13.1104 2.51198 9.16525C2.51198 7.48214 3.17573 5.86798 4.3572 4.67784C5.53868 3.48771 7.1411 2.8191 8.81196 2.8191C10.4828 2.8191 12.0852 3.48771 13.2667 4.67784C14.4482 5.86798 15.1119 7.48214 15.1119 9.16525C15.1119 13.0787 10.5655 17.7749 8.81196 19.4566Z" fill="#A0A0A0"/>
<path d="M8.81183 5.01904C8.08499 5.01904 7.37447 5.23616 6.77012 5.64293C6.16577 6.0497 5.69474 6.62786 5.41658 7.3043C5.13843 7.98074 5.06566 8.72507 5.20746 9.44317C5.34926 10.1613 5.69927 10.8209 6.21322 11.3386C6.72718 11.8563 7.382 12.2089 8.09488 12.3518C8.80775 12.4946 9.54667 12.4213 10.2182 12.1411C10.8897 11.8609 11.4637 11.3864 11.8675 10.7776C12.2713 10.1689 12.4868 9.45314 12.4868 8.72097C12.4868 7.73915 12.0996 6.79756 11.4104 6.10331C10.7212 5.40907 9.7865 5.01904 8.81183 5.01904ZM8.81183 10.3075C8.50033 10.3075 8.19582 10.2145 7.93681 10.0401C7.67781 9.86579 7.47593 9.61801 7.35673 9.32811C7.23752 9.03821 7.20633 8.7192 7.2671 8.41145C7.32787 8.10369 7.47787 7.82099 7.69814 7.59911C7.91841 7.37723 8.19905 7.22613 8.50457 7.16491C8.81008 7.1037 9.12676 7.13511 9.41456 7.2552C9.70235 7.37528 9.94833 7.57863 10.1214 7.83953C10.2945 8.10044 10.3868 8.40718 10.3868 8.72097C10.3868 9.14174 10.2209 9.54528 9.92552 9.84282C9.63015 10.1404 9.22955 10.3075 8.81183 10.3075Z" fill="#A0A0A0"/>
</svg>
