<svg width="50" height="50" viewBox="0 0 50 50" fill="none" xmlns="http://www.w3.org/2000/svg">
<g opacity="0.2">
<circle cx="25" cy="25" r="25" fill="#57B15B"/>
<circle cx="25" cy="25" r="25" fill="black" fill-opacity="0.2"/>
</g>
<path d="M19.1291 27.1018L23.4213 22.6373L14.033 12.8878C13.305 12.1306 12.0462 12.3357 11.5912 13.3138C10.5143 15.6644 10.9086 18.5513 12.7742 20.5075L19.1291 27.1018ZM29.4122 24.2464C31.7327 25.3665 34.9935 24.5777 37.4051 22.0694C40.3019 19.0562 40.8631 14.7336 38.6336 12.4145C36.4192 10.1113 32.2635 10.6792 29.3515 13.6924C26.94 16.2007 26.1816 19.5925 27.2585 22.0062L13.5173 36.2991C13.2338 36.5941 13.0744 36.9942 13.0744 37.4113C13.0744 37.8285 13.2338 38.2286 13.5173 38.5235C13.8009 38.8185 14.1855 38.9842 14.5866 38.9842C14.9877 38.9842 15.3723 38.8185 15.6559 38.5235L25.0441 28.7899L34.4172 38.5393C34.5576 38.6854 34.7243 38.8012 34.9078 38.8803C35.0913 38.9593 35.2879 39 35.4865 39C35.6851 39 35.8817 38.9593 36.0651 38.8803C36.2486 38.8012 36.4153 38.6854 36.5557 38.5393C36.6961 38.3933 36.8075 38.2199 36.8835 38.029C36.9595 37.8382 36.9986 37.6337 36.9986 37.4271C36.9986 37.2206 36.9595 37.016 36.8835 36.8252C36.8075 36.6344 36.6961 36.461 36.5557 36.3149L27.1826 26.5655L29.4122 24.2464Z" fill="#57B15B"/>
<path d="M19.1291 27.1018L23.4213 22.6373L14.033 12.8878C13.305 12.1306 12.0462 12.3357 11.5912 13.3138C10.5143 15.6644 10.9086 18.5513 12.7742 20.5075L19.1291 27.1018ZM29.4122 24.2464C31.7327 25.3665 34.9935 24.5777 37.4051 22.0694C40.3019 19.0562 40.8631 14.7336 38.6336 12.4145C36.4192 10.1113 32.2635 10.6792 29.3515 13.6924C26.94 16.2007 26.1816 19.5925 27.2585 22.0062L13.5173 36.2991C13.2338 36.5941 13.0744 36.9942 13.0744 37.4113C13.0744 37.8285 13.2338 38.2286 13.5173 38.5235C13.8009 38.8185 14.1855 38.9842 14.5866 38.9842C14.9877 38.9842 15.3723 38.8185 15.6559 38.5235L25.0441 28.7899L34.4172 38.5393C34.5576 38.6854 34.7243 38.8012 34.9078 38.8803C35.0913 38.9593 35.2879 39 35.4865 39C35.6851 39 35.8817 38.9593 36.0651 38.8803C36.2486 38.8012 36.4153 38.6854 36.5557 38.5393C36.6961 38.3933 36.8075 38.2199 36.8835 38.029C36.9595 37.8382 36.9986 37.6337 36.9986 37.4271C36.9986 37.2206 36.9595 37.016 36.8835 36.8252C36.8075 36.6344 36.6961 36.461 36.5557 36.3149L27.1826 26.5655L29.4122 24.2464Z" fill="black" fill-opacity="0.2"/>
</svg>
