<svg width="50" height="50" viewBox="0 0 50 50" fill="none" xmlns="http://www.w3.org/2000/svg">
<g opacity="0.2">
<circle cx="25" cy="25" r="25" fill="#57B15B"/>
<circle cx="25" cy="25" r="25" fill="black" fill-opacity="0.2"/>
</g>
<path d="M38.7384 12.4553C38.8947 12.2175 38.9845 11.9411 38.9982 11.6556C39.0118 11.37 38.9489 11.0861 38.816 10.8341C38.6831 10.582 38.4854 10.3713 38.2438 10.2244C38.0022 10.0775 37.7258 9.99996 37.4442 10H12.5548C12.2734 10.0001 11.9973 10.0778 11.756 10.2246C11.5146 10.3714 11.317 10.5819 11.1842 10.8337C11.0514 11.0855 10.9883 11.3691 11.0018 11.6544C11.0152 11.9397 11.1046 12.2159 11.2605 12.4537L23.4439 31.0047V36.8421H17.8841C17.3318 36.8421 16.8841 37.2898 16.8841 37.8421V39C16.8841 39.5523 17.3318 40 17.8841 40H32.3188C32.8711 40 33.3188 39.5523 33.3188 39V37.8421C33.3188 37.2898 32.8711 36.8421 32.3188 36.8421H26.5551V31.0047L38.7384 12.4553ZM34.5383 13.1579L31.4272 17.8947H18.5718L15.4606 13.1579H34.5383Z" fill="#57B15B"/>
<path d="M38.7384 12.4553C38.8947 12.2175 38.9845 11.9411 38.9982 11.6556C39.0118 11.37 38.9489 11.0861 38.816 10.8341C38.6831 10.582 38.4854 10.3713 38.2438 10.2244C38.0022 10.0775 37.7258 9.99996 37.4442 10H12.5548C12.2734 10.0001 11.9973 10.0778 11.756 10.2246C11.5146 10.3714 11.317 10.5819 11.1842 10.8337C11.0514 11.0855 10.9883 11.3691 11.0018 11.6544C11.0152 11.9397 11.1046 12.2159 11.2605 12.4537L23.4439 31.0047V36.8421H17.8841C17.3318 36.8421 16.8841 37.2898 16.8841 37.8421V39C16.8841 39.5523 17.3318 40 17.8841 40H32.3188C32.8711 40 33.3188 39.5523 33.3188 39V37.8421C33.3188 37.2898 32.8711 36.8421 32.3188 36.8421H26.5551V31.0047L38.7384 12.4553ZM34.5383 13.1579L31.4272 17.8947H18.5718L15.4606 13.1579H34.5383Z" fill="black" fill-opacity="0.2"/>
</svg>
