<svg width="23" height="18" viewBox="0 0 23 18" fill="none" xmlns="http://www.w3.org/2000/svg">
<path d="M3.28571 0.411133C1.93446 0.411133 0.821429 1.48655 0.821429 2.79214V8.17401C0.320357 8.61132 0 9.23753 0 9.93516V17.0782H4.10714H18.8929H23V9.93516C23 9.23753 22.6796 8.61132 22.1786 8.17401V2.79214C22.1786 1.48655 21.0655 0.411133 19.7143 0.411133H3.28571ZM3.28571 1.99847H19.7143C20.1702 1.99847 20.5357 2.35165 20.5357 2.79214V7.55415H18.8929V6.76049C18.8929 5.4549 17.7798 4.37948 16.4286 4.37948H13.1429C12.5136 4.37948 11.9362 4.61758 11.5 4.99933C11.0509 4.60292 10.4654 4.38199 9.85714 4.37948H6.57143C5.22018 4.37948 4.10714 5.4549 4.10714 6.76049V7.55415H2.46429V2.79214C2.46429 2.35165 2.82982 1.99847 3.28571 1.99847ZM6.57143 5.96682H9.85714C10.313 5.96682 10.6786 6.32 10.6786 6.76049V7.55415H5.75V6.76049C5.75 6.32 6.11554 5.96682 6.57143 5.96682ZM13.1429 5.96682H16.4286C16.8845 5.96682 17.25 6.32 17.25 6.76049V7.55415H12.3214V6.76049C12.3214 6.32 12.687 5.96682 13.1429 5.96682ZM2.46429 9.14149H20.5357C20.9916 9.14149 21.3571 9.49468 21.3571 9.93516V15.4908H20.5357H2.46429H1.64286V9.93516C1.64286 9.49468 2.00839 9.14149 2.46429 9.14149Z" fill="#A0A0A0"/>
</svg>
