<svg width="50" height="50" viewBox="0 0 50 50" fill="none" xmlns="http://www.w3.org/2000/svg">
<g opacity="0.2">
<circle cx="25" cy="25" r="25" fill="#57B15B"/>
<circle cx="25" cy="25" r="25" fill="black" fill-opacity="0.2"/>
</g>
<path d="M23.1485 24.423C23.1485 24.0849 23.2828 23.7606 23.5219 23.5215C23.761 23.2824 24.0853 23.1481 24.4234 23.1481C24.7615 23.1481 25.0858 23.0138 25.3249 22.7747C25.564 22.5356 25.6983 22.2114 25.6983 21.8733C25.6983 21.5351 25.564 21.2109 25.3249 20.9718C25.0858 20.7327 24.7615 20.5984 24.4234 20.5984C23.4091 20.5984 22.4362 21.0014 21.719 21.7186C21.0017 22.4358 20.5988 23.4086 20.5988 24.423C20.5988 24.7611 20.7331 25.0853 20.9722 25.3244C21.2113 25.5635 21.5355 25.6978 21.8736 25.6978C22.2118 25.6978 22.536 25.5635 22.7751 25.3244C23.0142 25.0853 23.1485 24.7611 23.1485 24.423ZM15.4992 24.8479C15.4992 22.3684 16.4842 19.9905 18.2375 18.2372C19.9908 16.484 22.3688 15.499 24.8484 15.499C27.3279 15.499 29.7059 16.484 31.4592 18.2372C33.2125 19.9905 34.1975 22.3684 34.1975 24.8479C34.1975 27.3274 33.2125 29.7053 31.4592 31.4586C29.7059 33.2118 27.3279 34.1968 24.8484 34.1968C22.3688 34.1968 19.9908 33.2118 18.2375 31.4586C16.4842 29.7053 15.4992 27.3274 15.4992 24.8479ZM24.8484 18.0487C23.0451 18.0487 21.3156 18.765 20.0405 20.0401C18.7654 21.3152 18.049 23.0447 18.049 24.8479C18.049 26.6512 18.7654 28.3806 20.0405 29.6557C21.3156 30.9308 23.0451 31.6471 24.8484 31.6471C26.6517 31.6471 28.3811 30.9308 29.6563 29.6557C30.9314 28.3806 31.6478 26.6512 31.6478 24.8479C31.6478 23.0447 30.9314 21.3152 29.6563 20.0401C28.3811 18.765 26.6517 18.0487 24.8484 18.0487ZM14.1648 14.6389C16.6687 10.1021 21.2498 7 26.5482 7C34.6395 7 40.9969 14.1749 40.9969 22.7657C40.9969 23.7277 40.917 24.6711 40.7657 25.5873C40.6688 26.1721 40.6892 26.7942 40.8065 27.4282C41.1958 29.5208 40.9952 31.6804 40.2273 33.6655C39.4595 35.6507 38.1545 37.3831 36.4584 38.6691C34.7623 39.9551 32.7419 40.7439 30.6231 40.9474C28.5043 41.1509 26.3707 40.7611 24.4608 39.8215C23.1046 39.1715 21.5838 38.9458 20.0973 39.1738C19.5601 39.2555 19.0174 39.2964 18.474 39.2962C12.0434 39.2962 7 33.6801 7 26.9727C7 22.6025 9.12141 18.7286 12.3715 16.5359C13.1296 16.0208 13.7552 15.3783 14.1648 14.6389ZM26.5482 9.5497C22.2969 9.5497 18.5131 12.0382 16.3967 15.8713C15.7593 17.0237 14.8295 17.9501 13.796 18.647C11.2717 20.3553 9.54977 23.4269 9.54977 26.9727C9.54977 32.4681 13.6396 36.7465 18.474 36.7465C18.8955 36.7465 19.3086 36.7142 19.7148 36.653C21.7159 36.3468 23.7629 36.6538 25.5861 37.5335C27.0718 38.2642 28.7315 38.5671 30.3796 38.4085C32.0276 38.2498 33.5991 37.6358 34.9181 36.6352C36.2372 35.6345 37.2518 34.2867 37.8487 32.7424C38.4455 31.1981 38.6009 29.5182 38.2976 27.8906C38.1242 26.9936 38.1081 26.0733 38.25 25.1709C38.3791 24.3924 38.4471 23.5884 38.4471 22.7657C38.4471 15.3494 33.0076 9.5497 26.5482 9.5497Z" fill="#57B15B"/>
<path d="M23.1485 24.423C23.1485 24.0849 23.2828 23.7606 23.5219 23.5215C23.761 23.2824 24.0853 23.1481 24.4234 23.1481C24.7615 23.1481 25.0858 23.0138 25.3249 22.7747C25.564 22.5356 25.6983 22.2114 25.6983 21.8733C25.6983 21.5351 25.564 21.2109 25.3249 20.9718C25.0858 20.7327 24.7615 20.5984 24.4234 20.5984C23.4091 20.5984 22.4362 21.0014 21.719 21.7186C21.0017 22.4358 20.5988 23.4086 20.5988 24.423C20.5988 24.7611 20.7331 25.0853 20.9722 25.3244C21.2113 25.5635 21.5355 25.6978 21.8736 25.6978C22.2118 25.6978 22.536 25.5635 22.7751 25.3244C23.0142 25.0853 23.1485 24.7611 23.1485 24.423ZM15.4992 24.8479C15.4992 22.3684 16.4842 19.9905 18.2375 18.2372C19.9908 16.484 22.3688 15.499 24.8484 15.499C27.3279 15.499 29.7059 16.484 31.4592 18.2372C33.2125 19.9905 34.1975 22.3684 34.1975 24.8479C34.1975 27.3274 33.2125 29.7053 31.4592 31.4586C29.7059 33.2118 27.3279 34.1968 24.8484 34.1968C22.3688 34.1968 19.9908 33.2118 18.2375 31.4586C16.4842 29.7053 15.4992 27.3274 15.4992 24.8479ZM24.8484 18.0487C23.0451 18.0487 21.3156 18.765 20.0405 20.0401C18.7654 21.3152 18.049 23.0447 18.049 24.8479C18.049 26.6512 18.7654 28.3806 20.0405 29.6557C21.3156 30.9308 23.0451 31.6471 24.8484 31.6471C26.6517 31.6471 28.3811 30.9308 29.6563 29.6557C30.9314 28.3806 31.6478 26.6512 31.6478 24.8479C31.6478 23.0447 30.9314 21.3152 29.6563 20.0401C28.3811 18.765 26.6517 18.0487 24.8484 18.0487ZM14.1648 14.6389C16.6687 10.1021 21.2498 7 26.5482 7C34.6395 7 40.9969 14.1749 40.9969 22.7657C40.9969 23.7277 40.917 24.6711 40.7657 25.5873C40.6688 26.1721 40.6892 26.7942 40.8065 27.4282C41.1958 29.5208 40.9952 31.6804 40.2273 33.6655C39.4595 35.6507 38.1545 37.3831 36.4584 38.6691C34.7623 39.9551 32.7419 40.7439 30.6231 40.9474C28.5043 41.1509 26.3707 40.7611 24.4608 39.8215C23.1046 39.1715 21.5838 38.9458 20.0973 39.1738C19.5601 39.2555 19.0174 39.2964 18.474 39.2962C12.0434 39.2962 7 33.6801 7 26.9727C7 22.6025 9.12141 18.7286 12.3715 16.5359C13.1296 16.0208 13.7552 15.3783 14.1648 14.6389ZM26.5482 9.5497C22.2969 9.5497 18.5131 12.0382 16.3967 15.8713C15.7593 17.0237 14.8295 17.9501 13.796 18.647C11.2717 20.3553 9.54977 23.4269 9.54977 26.9727C9.54977 32.4681 13.6396 36.7465 18.474 36.7465C18.8955 36.7465 19.3086 36.7142 19.7148 36.653C21.7159 36.3468 23.7629 36.6538 25.5861 37.5335C27.0718 38.2642 28.7315 38.5671 30.3796 38.4085C32.0276 38.2498 33.5991 37.6358 34.9181 36.6352C36.2372 35.6345 37.2518 34.2867 37.8487 32.7424C38.4455 31.1981 38.6009 29.5182 38.2976 27.8906C38.1242 26.9936 38.1081 26.0733 38.25 25.1709C38.3791 24.3924 38.4471 23.5884 38.4471 22.7657C38.4471 15.3494 33.0076 9.5497 26.5482 9.5497Z" fill="black" fill-opacity="0.2"/>
</svg>
