<svg width="22" height="22" viewBox="0 0 22 22" fill="none" xmlns="http://www.w3.org/2000/svg">
<path d="M18.0084 2.11538H15.9084V1.05769C15.9084 0.777175 15.7978 0.508147 15.6009 0.309791C15.404 0.111435 15.1369 0 14.8584 0C14.5799 0 14.3129 0.111435 14.1159 0.309791C13.919 0.508147 13.8084 0.777175 13.8084 1.05769V2.11538H7.50843V1.05769C7.50843 0.777175 7.3978 0.508147 7.20089 0.309791C7.00398 0.111435 6.73691 0 6.45843 0C6.17995 0 5.91288 0.111435 5.71597 0.309791C5.51906 0.508147 5.40843 0.777175 5.40843 1.05769V2.11538H3.30844C2.47301 2.11538 1.6718 2.44969 1.08106 3.04476C0.49032 3.63982 0.158447 4.44691 0.158447 5.28846V17.9808C0.158447 18.8223 0.49032 19.6294 1.08106 20.2245C1.6718 20.8195 2.47301 21.1538 3.30844 21.1538H18.0084C18.8438 21.1538 19.645 20.8195 20.2358 20.2245C20.8265 19.6294 21.1584 18.8223 21.1584 17.9808V5.28846C21.1584 4.44691 20.8265 3.63982 20.2358 3.04476C19.645 2.44969 18.8438 2.11538 18.0084 2.11538ZM19.0584 17.9808C19.0584 18.2613 18.9478 18.5303 18.7509 18.7287C18.5539 18.927 18.2869 19.0385 18.0084 19.0385H3.30844C3.02996 19.0385 2.76289 18.927 2.56598 18.7287C2.36907 18.5303 2.25844 18.2613 2.25844 17.9808V10.5769H19.0584V17.9808ZM19.0584 8.46154H2.25844V5.28846C2.25844 5.00794 2.36907 4.73892 2.56598 4.54056C2.76289 4.3422 3.02996 4.23077 3.30844 4.23077H5.40843V5.28846C5.40843 5.56898 5.51906 5.83801 5.71597 6.03636C5.91288 6.23472 6.17995 6.34615 6.45843 6.34615C6.73691 6.34615 7.00398 6.23472 7.20089 6.03636C7.3978 5.83801 7.50843 5.56898 7.50843 5.28846V4.23077H13.8084V5.28846C13.8084 5.56898 13.919 5.83801 14.1159 6.03636C14.3129 6.23472 14.5799 6.34615 14.8584 6.34615C15.1369 6.34615 15.404 6.23472 15.6009 6.03636C15.7978 5.83801 15.9084 5.56898 15.9084 5.28846V4.23077H18.0084C18.2869 4.23077 18.5539 4.3422 18.7509 4.54056C18.9478 4.73892 19.0584 5.00794 19.0584 5.28846V8.46154Z" fill="#A0A0A0"/>
</svg>
