<svg width="138" height="44" viewBox="0 0 138 44" fill="none" xmlns="http://www.w3.org/2000/svg">
<path d="M13.7251 42.8673V20.7301H19.1013V42.8673H13.7251ZM0 42.8673V20.7301H5.37619V42.8673H0ZM2.08723 34.2338L2.11885 29.4269H16.5713V34.2338H2.08723Z" fill="#1C4726"/>
<path d="M32.0135 43.1836C30.2636 43.1836 28.7035 42.8041 27.3331 42.0451C25.9838 41.2861 24.9085 40.253 24.1074 38.9459C23.3273 37.6387 22.9373 36.1418 22.9373 34.4552C22.9373 32.7685 23.3273 31.2716 24.1074 29.9645C24.9085 28.6573 25.9838 27.6242 27.3331 26.8653C28.7035 26.1063 30.2636 25.7268 32.0135 25.7268C33.7634 25.7268 35.313 26.1063 36.6624 26.8653C38.0328 27.6242 39.108 28.6573 39.8881 29.9645C40.6681 31.2716 41.0582 32.7685 41.0582 34.4552C41.0582 36.1418 40.6681 37.6387 39.8881 38.9459C39.108 40.253 38.0328 41.2861 36.6624 42.0451C35.313 42.8041 33.7634 43.1836 32.0135 43.1836ZM32.0135 38.8194C32.7725 38.8194 33.4472 38.6296 34.0375 38.2501C34.6278 37.8706 35.0917 37.3541 35.429 36.7005C35.7663 36.0469 35.9244 35.2985 35.9034 34.4552C35.9244 33.6118 35.7663 32.8634 35.429 32.2098C35.0917 31.5352 34.6278 31.0081 34.0375 30.6286C33.4472 30.2491 32.7725 30.0593 32.0135 30.0593C31.2545 30.0593 30.5693 30.2491 29.9579 30.6286C29.3676 31.0081 28.9038 31.5352 28.5664 32.2098C28.2291 32.8634 28.071 33.6118 28.0921 34.4552C28.071 35.2985 28.2291 36.0469 28.5664 36.7005C28.9038 37.3541 29.3676 37.8706 29.9579 38.2501C30.5693 38.6296 31.2545 38.8194 32.0135 38.8194Z" fill="#1C4726"/>
<path d="M44.3985 42.8673V19.4651H49.4585V42.8673H44.3985Z" fill="#1C4726"/>
<path d="M54.2563 42.8673V26.0746H59.3162V42.8673H54.2563Z" fill="#1C4726"/>
<path d="M70.4271 43.2152C68.9724 43.2152 67.6758 42.8462 66.5373 42.1083C65.4199 41.3493 64.5344 40.3163 63.8808 39.0091C63.2272 37.6809 62.9004 36.1734 62.9004 34.4868C62.9004 32.8001 63.2272 31.3033 63.8808 29.9961C64.5344 28.6679 65.4304 27.6242 66.5689 26.8653C67.7074 26.1063 69.0145 25.7268 70.4904 25.7268C71.2494 25.7268 71.9767 25.8427 72.6725 26.0746C73.3682 26.3066 74.0007 26.6228 74.5699 27.0234C75.1392 27.424 75.603 27.8878 75.9614 28.4149C76.3198 28.9209 76.5307 29.4479 76.5939 29.9961L75.3922 30.2807V19.4651H80.4837V42.8673H75.7717L75.4871 39.0407L76.499 39.1989C76.4358 39.726 76.225 40.2319 75.8666 40.7169C75.5292 41.2018 75.0865 41.634 74.5383 42.0135C73.9902 42.3719 73.3577 42.6565 72.6408 42.8673C71.9451 43.0992 71.2072 43.2152 70.4271 43.2152ZM71.7237 39.0091C72.5038 39.0091 73.1785 38.8194 73.7477 38.4399C74.3169 38.0604 74.7491 37.5333 75.0443 36.8586C75.3606 36.184 75.5187 35.3934 75.5187 34.4868C75.5187 33.5591 75.3606 32.758 75.0443 32.0833C74.7491 31.4087 74.3169 30.8816 73.7477 30.5021C73.1785 30.1226 72.5038 29.9328 71.7237 29.9328C70.9436 29.9328 70.269 30.1226 69.6997 30.5021C69.1516 30.8816 68.7194 31.4087 68.4031 32.0833C68.0869 32.758 67.9288 33.5591 67.9288 34.4868C67.9288 35.3934 68.0869 36.184 68.4031 36.8586C68.7194 37.5333 69.1516 38.0604 69.6997 38.4399C70.269 38.8194 70.9436 39.0091 71.7237 39.0091Z" fill="#1C4726"/>
<path d="M90.9609 43.152C89.5483 43.152 88.2833 42.783 87.1659 42.0451C86.0696 41.2861 85.1947 40.253 84.5411 38.9459C83.8875 37.6176 83.5607 36.1207 83.5607 34.4552C83.5607 32.7474 83.8875 31.24 84.5411 29.9328C85.1947 28.6257 86.0907 27.6032 87.2292 26.8653C88.3677 26.1063 89.6643 25.7268 91.119 25.7268C91.9202 25.7268 92.6476 25.8427 93.3011 26.0746C93.9758 26.3066 94.5661 26.6333 95.0721 27.055C95.5781 27.4556 96.0103 27.93 96.3687 28.4781C96.7271 29.0052 96.9907 29.5744 97.1593 30.1858L96.1157 30.0593V26.0746H101.144V42.8673H96.0209V38.8194L97.1593 38.7878C96.9907 39.3781 96.7166 39.9368 96.3371 40.4639C95.9576 40.9909 95.4938 41.4548 94.9456 41.8553C94.3974 42.2559 93.786 42.5722 93.1114 42.8041C92.4367 43.036 91.7199 43.152 90.9609 43.152ZM92.3524 38.8826C93.1325 38.8826 93.8071 38.7034 94.3764 38.345C94.9456 37.9866 95.3884 37.4806 95.7046 36.827C96.0209 36.1524 96.179 35.3617 96.179 34.4552C96.179 33.5486 96.0209 32.7685 95.7046 32.1149C95.3884 31.4403 94.9456 30.9238 94.3764 30.5653C93.8071 30.1858 93.1325 29.9961 92.3524 29.9961C91.5934 29.9961 90.9293 30.1858 90.36 30.5653C89.8119 30.9238 89.3797 31.4403 89.0634 32.1149C88.7472 32.7685 88.5891 33.5486 88.5891 34.4552C88.5891 35.3617 88.7472 36.1524 89.0634 36.827C89.3797 37.4806 89.8119 37.9866 90.36 38.345C90.9293 38.7034 91.5934 38.8826 92.3524 38.8826Z" fill="#1C4726"/>
<path d="M104.945 42.8673V39.9579L113.863 28.5097V30.1858H104.945V26.0746H118.86V29.1106L110.416 40.2109L110.289 38.7561H119.144V42.8673H104.945Z" fill="#1C4726"/>
<path d="M130.688 43.1836C128.833 43.1836 127.22 42.8146 125.85 42.0767C124.479 41.3177 123.415 40.2952 122.656 39.0091C121.897 37.702 121.517 36.2156 121.517 34.55C121.517 33.264 121.728 32.0833 122.15 31.0081C122.571 29.9328 123.162 29.0052 123.921 28.2251C124.68 27.424 125.576 26.8125 126.609 26.3909C127.663 25.9481 128.812 25.7268 130.056 25.7268C131.237 25.7268 132.312 25.9376 133.282 26.3593C134.273 26.7809 135.126 27.3713 135.843 28.1302C136.56 28.8892 137.108 29.7853 137.488 30.8183C137.867 31.8514 138.036 32.9794 137.994 34.2022L137.962 35.562H124.585L123.857 32.7158H133.851L133.313 33.3167V32.6842C133.271 32.1571 133.102 31.6933 132.807 31.2927C132.533 30.871 132.164 30.5443 131.7 30.3123C131.237 30.0804 130.709 29.9645 130.119 29.9645C129.297 29.9645 128.591 30.1331 128 30.4705C127.431 30.7867 126.999 31.2611 126.704 31.8936C126.409 32.505 126.261 33.264 126.261 34.1706C126.261 35.0982 126.451 35.9099 126.83 36.6056C127.231 37.2803 127.8 37.8074 128.538 38.1869C129.297 38.5664 130.193 38.7561 131.226 38.7561C131.943 38.7561 132.575 38.6507 133.123 38.4399C133.693 38.229 134.304 37.8706 134.958 37.3646L137.33 40.7169C136.676 41.2861 135.98 41.7499 135.242 42.1083C134.504 42.4668 133.745 42.7303 132.965 42.899C132.206 43.0887 131.447 43.1836 130.688 43.1836Z" fill="#1C4726"/>
<path d="M56.4501 21.9949V19.8128L61.3645 14.8415H56.7916V12.2988H65.0646V14.424L60.1881 19.4523H65.0457V21.9949H56.4501Z" fill="#1C4726"/>
<path d="M66.3959 8.0801V6.26168L70.4913 2.11885H66.6805V0H73.5747V1.77098L69.5109 5.96125H73.5589V8.0801H66.3959Z" fill="#1C4726"/>
</svg>
