<svg width="24" height="24" viewBox="0 0 24 24" fill="none" xmlns="http://www.w3.org/2000/svg">
<rect y="4.61548" width="11.0769" height="18.4615" rx="1" fill="white"/>
<rect x="4.61536" width="13.8462" height="18.4615" rx="1" fill="white"/>
<rect x="13.8462" y="8.30762" width="10.1538" height="14.7692" rx="1" fill="white"/>
<g opacity="0.8">
<rect x="2.76929" y="8.30762" width="13.8462" height="2.76923" rx="0.5" fill="#57B15B"/>
<rect x="2.76929" y="8.30762" width="13.8462" height="2.76923" rx="0.5" fill="black" fill-opacity="0.2"/>
</g>
<g opacity="0.8">
<rect x="2.76929" y="12.9231" width="4.61538" height="2.76923" rx="0.5" fill="#57B15B"/>
<rect x="2.76929" y="12.9231" width="4.61538" height="2.76923" rx="0.5" fill="black" fill-opacity="0.2"/>
</g>
<g opacity="0.8">
<rect x="2.76929" y="17.5386" width="2.76923" height="2.76923" rx="0.5" fill="#57B15B"/>
<rect x="2.76929" y="17.5386" width="2.76923" height="2.76923" rx="0.5" fill="black" fill-opacity="0.2"/>
</g>
<g opacity="0.8">
<rect x="10.1538" y="2.76929" width="6.46154" height="2.76923" rx="0.5" fill="#57B15B"/>
<rect x="10.1538" y="2.76929" width="6.46154" height="2.76923" rx="0.5" fill="black" fill-opacity="0.2"/>
</g>
<g opacity="0.8">
<rect x="6.46155" y="17.5386" width="2.76923" height="2.76923" rx="0.5" fill="#57B15B"/>
<rect x="6.46155" y="17.5386" width="2.76923" height="2.76923" rx="0.5" fill="black" fill-opacity="0.2"/>
</g>
<g opacity="0.8">
<rect x="6.46155" y="2.76929" width="2.76923" height="2.76923" rx="0.5" fill="#57B15B"/>
<rect x="6.46155" y="2.76929" width="2.76923" height="2.76923" rx="0.5" fill="black" fill-opacity="0.2"/>
</g>
<g opacity="0.8">
<rect x="15.6923" y="17.5386" width="4.61538" height="2.76923" rx="0.5" fill="#57B15B"/>
<rect x="15.6923" y="17.5386" width="4.61538" height="2.76923" rx="0.5" fill="black" fill-opacity="0.2"/>
</g>
<g opacity="0.8">
<rect x="9.23071" y="12.9231" width="4.61538" height="2.76923" rx="0.5" fill="#57B15B"/>
<rect x="9.23071" y="12.9231" width="4.61538" height="2.76923" rx="0.5" fill="black" fill-opacity="0.2"/>
</g>
<g opacity="0.8">
<rect x="15.6923" y="12.9231" width="5.53846" height="2.76923" rx="0.5" fill="#57B15B"/>
<rect x="15.6923" y="12.9231" width="5.53846" height="2.76923" rx="0.5" fill="black" fill-opacity="0.2"/>
</g>
</svg>
