<svg width="50" height="50" viewBox="0 0 50 50" fill="none" xmlns="http://www.w3.org/2000/svg">
<g opacity="0.2">
<circle cx="25" cy="25" r="25" fill="#57B15B"/>
<circle cx="25" cy="25" r="25" fill="black" fill-opacity="0.2"/>
</g>
<path d="M23.5556 27.8889H25.7222C27.063 27.8889 28.3489 27.3563 29.297 26.4082C30.2451 25.46 30.7778 24.1741 30.7778 22.8333C30.7778 21.4925 30.2451 20.2066 29.297 19.2585C28.3489 18.3104 27.063 17.7778 25.7222 17.7778H20.6667V32.2222H23.5556V27.8889ZM13.4444 12H36.5556C36.9386 12 37.306 12.1522 37.5769 12.4231C37.8478 12.694 38 13.0614 38 13.4444V36.5556C38 36.9386 37.8478 37.306 37.5769 37.5769C37.306 37.8478 36.9386 38 36.5556 38H13.4444C13.0614 38 12.694 37.8478 12.4231 37.5769C12.1522 37.306 12 36.9386 12 36.5556V13.4444C12 13.0614 12.1522 12.694 12.4231 12.4231C12.694 12.1522 13.0614 12 13.4444 12ZM23.5556 20.6667H25.7222C26.2969 20.6667 26.848 20.8949 27.2543 21.3013C27.6606 21.7076 27.8889 22.2587 27.8889 22.8333C27.8889 23.408 27.6606 23.9591 27.2543 24.3654C26.848 24.7717 26.2969 25 25.7222 25H23.5556V20.6667Z" fill="#57B15B"/>
<path d="M23.5556 27.8889H25.7222C27.063 27.8889 28.3489 27.3563 29.297 26.4082C30.2451 25.46 30.7778 24.1741 30.7778 22.8333C30.7778 21.4925 30.2451 20.2066 29.297 19.2585C28.3489 18.3104 27.063 17.7778 25.7222 17.7778H20.6667V32.2222H23.5556V27.8889ZM13.4444 12H36.5556C36.9386 12 37.306 12.1522 37.5769 12.4231C37.8478 12.694 38 13.0614 38 13.4444V36.5556C38 36.9386 37.8478 37.306 37.5769 37.5769C37.306 37.8478 36.9386 38 36.5556 38H13.4444C13.0614 38 12.694 37.8478 12.4231 37.5769C12.1522 37.306 12 36.9386 12 36.5556V13.4444C12 13.0614 12.1522 12.694 12.4231 12.4231C12.694 12.1522 13.0614 12 13.4444 12ZM23.5556 20.6667H25.7222C26.2969 20.6667 26.848 20.8949 27.2543 21.3013C27.6606 21.7076 27.8889 22.2587 27.8889 22.8333C27.8889 23.408 27.6606 23.9591 27.2543 24.3654C26.848 24.7717 26.2969 25 25.7222 25H23.5556V20.6667Z" fill="black" fill-opacity="0.2"/>
</svg>
