<svg width="40" height="40" viewBox="0 0 40 40" fill="none" xmlns="http://www.w3.org/2000/svg">
<g opacity="0.2">
<circle cx="20" cy="20" r="20" fill="#57B15B"/>
<circle cx="20" cy="20" r="20" fill="black" fill-opacity="0.2"/>
</g>
<path d="M19.7603 18.8462C20.9249 18.8462 22.0417 18.3802 22.8652 17.5507C23.6886 16.7212 24.1512 15.5961 24.1512 14.4231C24.1512 13.25 23.6886 12.125 22.8652 11.2955C22.0417 10.466 20.9249 10 19.7603 10C18.5958 10 17.4789 10.466 16.6555 11.2955C15.832 12.125 15.3694 13.25 15.3694 14.4231C15.3694 15.5961 15.832 16.7212 16.6555 17.5507C17.4789 18.3802 18.5958 18.8462 19.7603 18.8462ZM22.6876 14.4231C22.6876 15.2051 22.3792 15.9551 21.8302 16.5081C21.2812 17.0611 20.5367 17.3718 19.7603 17.3718C18.984 17.3718 18.2394 17.0611 17.6904 16.5081C17.1415 15.9551 16.8331 15.2051 16.8331 14.4231C16.8331 13.641 17.1415 12.891 17.6904 12.338C18.2394 11.785 18.984 11.4744 19.7603 11.4744C20.5367 11.4744 21.2812 11.785 21.8302 12.338C22.3792 12.891 22.6876 13.641 22.6876 14.4231ZM28.5421 26.2179C28.5421 27.6923 27.0785 27.6923 27.0785 27.6923H12.4422C12.4422 27.6923 10.9785 27.6923 10.9785 26.2179C10.9785 24.7436 12.4422 20.3205 19.7603 20.3205C27.0785 20.3205 28.5421 24.7436 28.5421 26.2179ZM27.0785 26.2121C27.077 25.8494 26.8531 24.7583 25.8608 23.7587C24.9065 22.7974 23.1106 21.7949 19.7603 21.7949C16.4086 21.7949 14.6142 22.7974 13.6599 23.7587C12.6676 24.7583 12.4451 25.8494 12.4422 26.2121H27.0785Z" fill="#57B15B"/>
<path d="M19.7603 18.8462C20.9249 18.8462 22.0417 18.3802 22.8652 17.5507C23.6886 16.7212 24.1512 15.5961 24.1512 14.4231C24.1512 13.25 23.6886 12.125 22.8652 11.2955C22.0417 10.466 20.9249 10 19.7603 10C18.5958 10 17.4789 10.466 16.6555 11.2955C15.832 12.125 15.3694 13.25 15.3694 14.4231C15.3694 15.5961 15.832 16.7212 16.6555 17.5507C17.4789 18.3802 18.5958 18.8462 19.7603 18.8462ZM22.6876 14.4231C22.6876 15.2051 22.3792 15.9551 21.8302 16.5081C21.2812 17.0611 20.5367 17.3718 19.7603 17.3718C18.984 17.3718 18.2394 17.0611 17.6904 16.5081C17.1415 15.9551 16.8331 15.2051 16.8331 14.4231C16.8331 13.641 17.1415 12.891 17.6904 12.338C18.2394 11.785 18.984 11.4744 19.7603 11.4744C20.5367 11.4744 21.2812 11.785 21.8302 12.338C22.3792 12.891 22.6876 13.641 22.6876 14.4231ZM28.5421 26.2179C28.5421 27.6923 27.0785 27.6923 27.0785 27.6923H12.4422C12.4422 27.6923 10.9785 27.6923 10.9785 26.2179C10.9785 24.7436 12.4422 20.3205 19.7603 20.3205C27.0785 20.3205 28.5421 24.7436 28.5421 26.2179ZM27.0785 26.2121C27.077 25.8494 26.8531 24.7583 25.8608 23.7587C24.9065 22.7974 23.1106 21.7949 19.7603 21.7949C16.4086 21.7949 14.6142 22.7974 13.6599 23.7587C12.6676 24.7583 12.4451 25.8494 12.4422 26.2121H27.0785Z" fill="black" fill-opacity="0.2"/>
</svg>
