<svg width="21" height="21" viewBox="0 0 21 21" fill="none" xmlns="http://www.w3.org/2000/svg">
<path d="M10.6281 10.8308C11.9359 10.8308 13.1899 10.3075 14.1144 9.37618C15.0389 8.44494 15.5581 7.18205 15.5581 5.86538C15.5581 4.54872 15.0389 3.28583 14.1144 2.35459C13.1899 1.42332 11.9359 0.9 10.6281 0.9C9.32038 0.9 8.06634 1.42332 7.14184 2.35459C6.21737 3.28583 5.69813 4.54872 5.69813 5.86538C5.69813 7.18205 6.21737 8.44494 7.14184 9.37618C8.06634 10.3075 9.32038 10.8308 10.6281 10.8308ZM13.7481 5.86538C13.7481 6.69935 13.4192 7.49901 12.834 8.0885C12.2489 8.67795 11.4554 9.00897 10.6281 9.00897C9.80089 9.00897 9.00739 8.67795 8.42222 8.0885C7.83702 7.49901 7.50813 6.69935 7.50813 5.86538C7.50813 5.03142 7.83702 4.23175 8.42222 3.64227C9.00739 3.05281 9.80089 2.72179 10.6281 2.72179C11.4554 2.72179 12.2489 3.05281 12.834 3.64227C13.4192 4.23175 13.7481 5.03142 13.7481 5.86538ZM18.6781 20.4615C18.6781 20.5615 18.6782 20.5615 18.6782 20.5615L18.6784 20.5615H18.6788L18.6801 20.5615L18.6844 20.5615L18.6996 20.5611C18.7042 20.5609 18.7096 20.5607 18.7157 20.5604C18.7265 20.5599 18.7395 20.5592 18.7545 20.5581C18.8012 20.5548 18.8672 20.5481 18.9462 20.5348C19.1038 20.5084 19.3153 20.4553 19.5281 20.3481C19.7413 20.2408 19.9574 20.0782 20.1199 19.8325C20.2829 19.5863 20.3881 19.2625 20.3881 18.8397C20.3881 18.0034 19.9758 16.356 18.5478 14.9175C17.1169 13.4761 14.6744 12.2526 10.6281 12.2526C6.58183 12.2526 4.1394 13.4761 2.70842 14.9175C1.28042 16.356 0.86814 18.0034 0.86814 18.8397C0.86814 19.2625 0.973348 19.5863 1.13631 19.8325C1.29888 20.0782 1.51499 20.2408 1.72816 20.3481C1.94092 20.4553 2.15248 20.5084 2.31002 20.5348C2.38902 20.5481 2.45508 20.5548 2.50178 20.5581C2.52515 20.5598 2.54372 20.5606 2.5567 20.5611L2.57189 20.5615L2.57617 20.5615L2.57745 20.5615H2.57787L2.57802 20.5615C2.57808 20.5615 2.57814 20.5615 2.57814 20.4615V20.5615H18.6781V20.4615ZM17.2676 16.205C18.2573 17.202 18.5351 18.2793 18.5733 18.7333H2.68329C2.72256 18.2787 2.99931 17.2016 3.98862 16.205C5.01615 15.17 6.9626 14.0744 10.6281 14.0744C14.2921 14.0744 16.2401 15.17 17.2676 16.205Z" fill="#A0A0A0" stroke="#A0A0A0" stroke-width="0.2"/>
</svg>
