<svg width="40" height="40" viewBox="0 0 40 40" fill="none" xmlns="http://www.w3.org/2000/svg">
<g opacity="0.2">
<circle cx="20" cy="20" r="20" fill="#57B15B"/>
<circle cx="20" cy="20" r="20" fill="black" fill-opacity="0.2"/>
</g>
<path d="M20.4044 9.80762C18.3923 9.80752 16.4614 10.6074 15.0315 12.0334C13.6016 13.4594 12.7882 15.3962 12.7681 17.423C12.7681 22.6923 19.4976 28.5576 19.784 28.8076C19.9569 28.9566 20.1769 29.0385 20.4044 29.0385C20.632 29.0385 20.852 28.9566 21.0249 28.8076C21.359 28.5576 28.0408 22.6923 28.0408 17.423C28.0207 15.3962 27.2073 13.4594 25.7773 12.0334C24.3474 10.6074 22.4166 9.80752 20.4044 9.80762ZM20.4044 26.7788C18.8103 25.2499 14.6772 21.0096 14.6772 17.423C14.6772 15.8929 15.2806 14.4255 16.3546 13.3435C17.4287 12.2616 18.8855 11.6538 20.4044 11.6538C21.9234 11.6538 23.3802 12.2616 24.4542 13.3435C25.5283 14.4255 26.1317 15.8929 26.1317 17.423C26.1317 20.9807 21.9985 25.2499 20.4044 26.7788Z" fill="#57B15B"/>
<path d="M20.4044 9.80762C18.3923 9.80752 16.4614 10.6074 15.0315 12.0334C13.6016 13.4594 12.7882 15.3962 12.7681 17.423C12.7681 22.6923 19.4976 28.5576 19.784 28.8076C19.9569 28.9566 20.1769 29.0385 20.4044 29.0385C20.632 29.0385 20.852 28.9566 21.0249 28.8076C21.359 28.5576 28.0408 22.6923 28.0408 17.423C28.0207 15.3962 27.2073 13.4594 25.7773 12.0334C24.3474 10.6074 22.4166 9.80752 20.4044 9.80762ZM20.4044 26.7788C18.8103 25.2499 14.6772 21.0096 14.6772 17.423C14.6772 15.8929 15.2806 14.4255 16.3546 13.3435C17.4287 12.2616 18.8855 11.6538 20.4044 11.6538C21.9234 11.6538 23.3802 12.2616 24.4542 13.3435C25.5283 14.4255 26.1317 15.8929 26.1317 17.423C26.1317 20.9807 21.9985 25.2499 20.4044 26.7788Z" fill="black" fill-opacity="0.2"/>
<path d="M20.4044 13.6533C19.7436 13.6533 19.0977 13.8507 18.5483 14.2205C17.9989 14.5903 17.5707 15.1159 17.3178 15.7308C17.0649 16.3458 16.9988 17.0224 17.1277 17.6753C17.2566 18.3281 17.5748 18.9277 18.042 19.3984C18.5092 19.869 19.1045 20.1896 19.7526 20.3194C20.4007 20.4493 21.0724 20.3826 21.6829 20.1279C22.2934 19.8732 22.8151 19.4418 23.1822 18.8884C23.5493 18.335 23.7453 17.6843 23.7453 17.0187C23.7453 16.1261 23.3933 15.2702 22.7667 14.639C22.1402 14.0079 21.2904 13.6533 20.4044 13.6533ZM20.4044 18.461C20.1212 18.461 19.8444 18.3764 19.6089 18.2179C19.3734 18.0595 19.1899 17.8342 19.0816 17.5707C18.9732 17.3071 18.9448 17.0171 19.0001 16.7373C19.0553 16.4575 19.1917 16.2005 19.3919 15.9988C19.5922 15.7971 19.8473 15.6598 20.125 15.6041C20.4028 15.5485 20.6907 15.577 20.9523 15.6862C21.2139 15.7954 21.4376 15.9802 21.5949 16.2174C21.7522 16.4546 21.8362 16.7334 21.8362 17.0187C21.8362 17.4012 21.6853 17.7681 21.4168 18.0386C21.1483 18.3091 20.7841 18.461 20.4044 18.461Z" fill="#57B15B"/>
<path d="M20.4044 13.6533C19.7436 13.6533 19.0977 13.8507 18.5483 14.2205C17.9989 14.5903 17.5707 15.1159 17.3178 15.7308C17.0649 16.3458 16.9988 17.0224 17.1277 17.6753C17.2566 18.3281 17.5748 18.9277 18.042 19.3984C18.5092 19.869 19.1045 20.1896 19.7526 20.3194C20.4007 20.4493 21.0724 20.3826 21.6829 20.1279C22.2934 19.8732 22.8151 19.4418 23.1822 18.8884C23.5493 18.335 23.7453 17.6843 23.7453 17.0187C23.7453 16.1261 23.3933 15.2702 22.7667 14.639C22.1402 14.0079 21.2904 13.6533 20.4044 13.6533ZM20.4044 18.461C20.1212 18.461 19.8444 18.3764 19.6089 18.2179C19.3734 18.0595 19.1899 17.8342 19.0816 17.5707C18.9732 17.3071 18.9448 17.0171 19.0001 16.7373C19.0553 16.4575 19.1917 16.2005 19.3919 15.9988C19.5922 15.7971 19.8473 15.6598 20.125 15.6041C20.4028 15.5485 20.6907 15.577 20.9523 15.6862C21.2139 15.7954 21.4376 15.9802 21.5949 16.2174C21.7522 16.4546 21.8362 16.7334 21.8362 17.0187C21.8362 17.4012 21.6853 17.7681 21.4168 18.0386C21.1483 18.3091 20.7841 18.461 20.4044 18.461Z" fill="black" fill-opacity="0.2"/>
</svg>
