<svg width="21" height="21" viewBox="0 0 21 21" fill="none" xmlns="http://www.w3.org/2000/svg">
<path d="M17.4828 19.4633C17.7846 19.1574 17.9038 18.7192 17.8227 18.3001L15.5277 8.07875L20.1398 3.40467C20.8358 2.69931 20.8421 1.57361 20.1538 0.884447C19.4655 0.195286 18.348 0.208363 17.652 0.913724L13.0399 5.5878L2.87919 3.33786C2.58729 3.27604 2.28123 3.32325 2.01764 3.47073C1.75405 3.61821 1.55078 3.85599 1.44545 4.14007C1.34011 4.42414 1.33985 4.73527 1.4447 5.01589C1.54956 5.2965 1.75243 5.5276 2.01578 5.66642L9.26638 9.41205L4.65429 14.0861L2.02953 13.7388C1.93894 13.7249 1.84596 13.7334 1.75862 13.7637C1.67129 13.794 1.59222 13.8452 1.52825 13.9127L1.0335 14.4141C0.756774 14.6946 0.820888 15.1642 1.16173 15.3534L4.22107 17.0313L5.90518 20.1028C6.09508 20.445 6.5617 20.5068 6.83843 20.2263L7.33318 19.7249C7.39985 19.6601 7.45013 19.5801 7.47968 19.492C7.50922 19.4038 7.51714 19.3101 7.50275 19.2189L7.14211 16.5771L11.7542 11.903L15.5164 19.1839C15.9042 19.927 16.8958 20.0582 17.4828 19.4633Z" fill="#57B15B"/>
<path d="M17.4828 19.4633C17.7846 19.1574 17.9038 18.7192 17.8227 18.3001L15.5277 8.07875L20.1398 3.40467C20.8358 2.69931 20.8421 1.57361 20.1538 0.884447C19.4655 0.195286 18.348 0.208363 17.652 0.913724L13.0399 5.5878L2.87919 3.33786C2.58729 3.27604 2.28123 3.32325 2.01764 3.47073C1.75405 3.61821 1.55078 3.85599 1.44545 4.14007C1.34011 4.42414 1.33985 4.73527 1.4447 5.01589C1.54956 5.2965 1.75243 5.5276 2.01578 5.66642L9.26638 9.41205L4.65429 14.0861L2.02953 13.7388C1.93894 13.7249 1.84596 13.7334 1.75862 13.7637C1.67129 13.794 1.59222 13.8452 1.52825 13.9127L1.0335 14.4141C0.756774 14.6946 0.820888 15.1642 1.16173 15.3534L4.22107 17.0313L5.90518 20.1028C6.09508 20.445 6.5617 20.5068 6.83843 20.2263L7.33318 19.7249C7.39985 19.6601 7.45013 19.5801 7.47968 19.492C7.50922 19.4038 7.51714 19.3101 7.50275 19.2189L7.14211 16.5771L11.7542 11.903L15.5164 19.1839C15.9042 19.927 16.8958 20.0582 17.4828 19.4633Z" fill="black" fill-opacity="0.2"/>
</svg>
