<svg width="50" height="50" viewBox="0 0 50 50" fill="none" xmlns="http://www.w3.org/2000/svg">
<g opacity="0.2">
<circle cx="25" cy="25" r="25" fill="#57B15B"/>
<circle cx="25" cy="25" r="25" fill="black" fill-opacity="0.2"/>
</g>
<path d="M10.6 29.8571H39.4C40.28 29.8571 41 30.5643 41 31.4286C41 32.2929 40.28 33 39.4 33H10.6C9.72 33 9 32.2929 9 31.4286C9 30.5643 9.72 29.8571 10.6 29.8571ZM27.944 15.3843C28.1509 14.9057 28.2341 14.3844 28.1861 13.8666C28.1381 13.3489 27.9605 12.8508 27.6691 12.4168C27.3776 11.9828 26.9814 11.6263 26.5157 11.3791C26.0501 11.1319 25.5293 11.0017 25 11C24.4707 11.0017 23.9499 11.1319 23.4843 11.3791C23.0186 11.6263 22.6224 11.9828 22.3309 12.4168C22.0395 12.8508 21.8619 13.3489 21.8139 13.8666C21.766 14.3844 21.8491 14.9057 22.056 15.3843C15.8 16.6571 11.032 21.89 10.6 28.2857H39.4C38.968 21.89 34.2 16.6571 27.944 15.3843Z" fill="#57B15B"/>
<path d="M10.6 29.8571H39.4C40.28 29.8571 41 30.5643 41 31.4286C41 32.2929 40.28 33 39.4 33H10.6C9.72 33 9 32.2929 9 31.4286C9 30.5643 9.72 29.8571 10.6 29.8571ZM27.944 15.3843C28.1509 14.9057 28.2341 14.3844 28.1861 13.8666C28.1381 13.3489 27.9605 12.8508 27.6691 12.4168C27.3776 11.9828 26.9814 11.6263 26.5157 11.3791C26.0501 11.1319 25.5293 11.0017 25 11C24.4707 11.0017 23.9499 11.1319 23.4843 11.3791C23.0186 11.6263 22.6224 11.9828 22.3309 12.4168C22.0395 12.8508 21.8619 13.3489 21.8139 13.8666C21.766 14.3844 21.8491 14.9057 22.056 15.3843C15.8 16.6571 11.032 21.89 10.6 28.2857H39.4C38.968 21.89 34.2 16.6571 27.944 15.3843Z" fill="black" fill-opacity="0.2"/>
</svg>
