<svg width="31" height="31" viewBox="0 0 31 31" fill="none" xmlns="http://www.w3.org/2000/svg">
<path d="M13.1458 26.1199C16.0014 26.1194 18.7746 25.1698 21.024 23.4226L28.0962 30.4472L30.371 28.1877L23.2988 21.163C25.0588 18.9286 26.0154 16.1733 26.016 13.3362C26.016 6.28759 20.2421 0.55249 13.1458 0.55249C6.04953 0.55249 0.275635 6.28759 0.275635 13.3362C0.275635 20.3848 6.04953 26.1199 13.1458 26.1199ZM13.1458 3.74842C18.4693 3.74842 22.7985 8.04855 22.7985 13.3362C22.7985 18.6239 18.4693 22.924 13.1458 22.924C7.8224 22.924 3.49319 18.6239 3.49319 13.3362C3.49319 8.04855 7.8224 3.74842 13.1458 3.74842Z" fill="white"/>
</svg>
