<svg width="50" height="50" viewBox="0 0 50 50" fill="none" xmlns="http://www.w3.org/2000/svg">
<path d="M18.6922 27.3691C22.5432 27.3691 21.9787 25.0015 24.4845 24.9806C27.0693 25.0025 26.4173 27.3691 30.3121 27.3691C32.6981 27.3691 33.6977 26.2704 34.092 25.8872L25.5612 18.9579C25.7612 18.8571 27.4849 17.8717 30.1334 17.8717C30.8972 17.8717 31.6634 17.9551 32.4138 18.1229L34.7585 18.6508C34.902 18.6835 35.0487 18.7001 35.196 18.7001C36.1627 18.7001 37.1379 17.9356 37.1379 16.7879C37.1379 15.9177 36.5285 15.1305 35.6286 14.9281L33.2839 14.4003C32.2512 14.1685 31.1952 14.0517 30.1359 14.0519C22.8385 14.0519 19.3569 19.177 19.3144 19.3053L17.8841 21.0009C16.6081 22.672 15.958 24.6118 15.8121 26.635C16.5716 27.0946 17.5924 27.3691 18.6922 27.3691ZM42 31.9648C42 31.0612 41.3426 30.2584 40.405 30.0895C37.4569 29.5591 37.6404 28.3301 36.1761 28.3301C34.6558 28.3301 34.281 30.2274 30.3321 30.2274C27.3798 30.2274 25.9136 28.9108 25.8735 28.8773C25.5004 28.5099 25.007 28.329 24.5112 28.329C23.0074 28.329 22.5918 30.2275 18.6661 30.2275C15.7137 30.2275 14.2494 28.9127 14.2056 28.8793C13.8335 28.5118 13.3367 28.3275 12.8409 28.3275C12.3505 28.3275 11.8615 28.5081 11.4811 28.8587C9.71843 30.4254 7 29.6072 7 31.9671C7 32.9268 7.77591 33.8811 8.92672 33.8811C9.52035 33.8811 11.3359 33.443 12.8312 32.5776C14.0197 33.2659 15.958 34 18.6679 34C21.3778 34 23.3161 33.2169 24.5009 32.5282C25.6876 33.2164 27.6283 33.9958 30.3339 33.9958C33.0433 33.9958 34.9858 33.2146 36.1706 32.5264C37.672 33.396 39.4967 33.8293 40.0739 33.8293C41.2223 33.8806 42 32.9376 42 31.9648ZM12.7802 21.6395C14.9281 21.6395 16.6689 19.9296 16.6689 17.8198C16.6689 15.7099 14.9281 14 12.7802 14C10.6323 14 8.89148 15.7099 8.89148 17.8198C8.89148 19.9266 10.687 21.6395 12.7802 21.6395Z" fill="#57B15B"/>
<path d="M18.6922 27.3691C22.5432 27.3691 21.9787 25.0015 24.4845 24.9806C27.0693 25.0025 26.4173 27.3691 30.3121 27.3691C32.6981 27.3691 33.6977 26.2704 34.092 25.8872L25.5612 18.9579C25.7612 18.8571 27.4849 17.8717 30.1334 17.8717C30.8972 17.8717 31.6634 17.9551 32.4138 18.1229L34.7585 18.6508C34.902 18.6835 35.0487 18.7001 35.196 18.7001C36.1627 18.7001 37.1379 17.9356 37.1379 16.7879C37.1379 15.9177 36.5285 15.1305 35.6286 14.9281L33.2839 14.4003C32.2512 14.1685 31.1952 14.0517 30.1359 14.0519C22.8385 14.0519 19.3569 19.177 19.3144 19.3053L17.8841 21.0009C16.6081 22.672 15.958 24.6118 15.8121 26.635C16.5716 27.0946 17.5924 27.3691 18.6922 27.3691ZM42 31.9648C42 31.0612 41.3426 30.2584 40.405 30.0895C37.4569 29.5591 37.6404 28.3301 36.1761 28.3301C34.6558 28.3301 34.281 30.2274 30.3321 30.2274C27.3798 30.2274 25.9136 28.9108 25.8735 28.8773C25.5004 28.5099 25.007 28.329 24.5112 28.329C23.0074 28.329 22.5918 30.2275 18.6661 30.2275C15.7137 30.2275 14.2494 28.9127 14.2056 28.8793C13.8335 28.5118 13.3367 28.3275 12.8409 28.3275C12.3505 28.3275 11.8615 28.5081 11.4811 28.8587C9.71843 30.4254 7 29.6072 7 31.9671C7 32.9268 7.77591 33.8811 8.92672 33.8811C9.52035 33.8811 11.3359 33.443 12.8312 32.5776C14.0197 33.2659 15.958 34 18.6679 34C21.3778 34 23.3161 33.2169 24.5009 32.5282C25.6876 33.2164 27.6283 33.9958 30.3339 33.9958C33.0433 33.9958 34.9858 33.2146 36.1706 32.5264C37.672 33.396 39.4967 33.8293 40.0739 33.8293C41.2223 33.8806 42 32.9376 42 31.9648ZM12.7802 21.6395C14.9281 21.6395 16.6689 19.9296 16.6689 17.8198C16.6689 15.7099 14.9281 14 12.7802 14C10.6323 14 8.89148 15.7099 8.89148 17.8198C8.89148 19.9266 10.687 21.6395 12.7802 21.6395Z" fill="black" fill-opacity="0.2"/>
<g opacity="0.2">
<circle cx="25" cy="25" r="25" fill="#57B15B"/>
<circle cx="25" cy="25" r="25" fill="black" fill-opacity="0.2"/>
</g>
</svg>
